<svg width="65" height="65" viewBox="0 0 65 65" fill="none" xmlns="http://www.w3.org/2000/svg">
<path d="M7.4968e-05 31.3333C7.57012e-05 14.5608 13.5609 0.999998 30.3334 0.999999C47.106 0.999999 60.6667 14.5608 60.6667 31.3333C60.6667 48.1059 47.106 61.6667 30.3334 61.6667C13.5609 61.6667 7.42349e-05 48.1059 7.4968e-05 31.3333ZM57.0981 31.3333C57.0981 16.5235 45.1432 4.56863 30.3334 4.56863C15.5236 4.56863 3.5687 16.5235 3.5687 31.3333C3.5687 46.1431 15.5236 58.098 30.3334 58.098C45.1432 58.098 57.0981 46.1431 57.0981 31.3333Z" fill="black"/>
<path d="M27.4445 46.1649L42.5656 31.3333L27.4445 16.5017L29.9951 14L47.6667 31.3333L29.9951 48.6667L27.4445 46.1649Z" fill="black"/>
<path d="M44.7778 29.8906L44.7778 32.7795L14.4445 32.7795L14.4445 29.8906L44.7778 29.8906Z" fill="black"/>
</svg>
