<svg width="56" height="60" viewBox="0 0 56 60" fill="none" xmlns="http://www.w3.org/2000/svg">
<path d="M0.291748 4.58203C0.291748 3.42171 0.752684 2.30891 1.57316 1.48844C2.39363 0.667968 3.50643 0.207031 4.66675 0.207031H51.3334C52.4937 0.207031 53.6065 0.667968 54.427 1.48844C55.2475 2.30891 55.7084 3.42171 55.7084 4.58203C55.7084 5.74235 55.2475 6.85515 54.427 7.67562C53.6065 8.49609 52.4937 8.95703 51.3334 8.95703H4.66675C3.50643 8.95703 2.39363 8.49609 1.57316 7.67562C0.752684 6.85515 0.291748 5.74235 0.291748 4.58203ZM4.66675 20.6237C3.50643 20.6237 2.39363 21.0846 1.57316 21.9051C0.752684 22.7256 0.291748 23.8384 0.291748 24.9987C0.291748 26.159 0.752684 27.2718 1.57316 28.0923C2.39363 28.9128 3.50643 29.3737 4.66675 29.3737H22.1667C23.3271 29.3737 24.4399 28.9128 25.2603 28.0923C26.0808 27.2718 26.5417 26.159 26.5417 24.9987C26.5417 23.8384 26.0808 22.7256 25.2603 21.9051C24.4399 21.0846 23.3271 20.6237 22.1667 20.6237H4.66675ZM0.291748 45.4154C0.291748 44.255 0.752684 43.1422 1.57316 42.3218C2.39363 41.5013 3.50643 41.0404 4.66675 41.0404H7.58342C8.74374 41.0404 9.85654 41.5013 10.677 42.3218C11.4975 43.1422 11.9584 44.255 11.9584 45.4154C11.9584 46.5757 11.4975 47.6885 10.677 48.509C9.85654 49.3294 8.74374 49.7904 7.58342 49.7904H4.66675C3.50643 49.7904 2.39363 49.3294 1.57316 48.509C0.752684 47.6885 0.291748 46.5757 0.291748 45.4154ZM29.4584 45.4154C29.4584 44.255 29.9194 43.1422 30.7398 42.3218C31.5603 41.5013 32.6731 41.0404 33.8334 41.0404H36.7501C37.9104 41.0404 39.0232 41.5013 39.8437 42.3218C40.6641 43.1422 41.1251 44.255 41.1251 45.4154C41.1251 46.5757 40.6641 47.6885 39.8437 48.509C39.0232 49.3294 37.9104 49.7904 36.7501 49.7904H33.8334C32.6731 49.7904 31.5603 49.3294 30.7398 48.509C29.9194 47.6885 29.4584 46.5757 29.4584 45.4154ZM19.2501 41.0404C18.0898 41.0404 16.977 41.5013 16.1565 42.3218C15.336 43.1422 14.8751 44.255 14.8751 45.4154C14.8751 46.5757 15.336 47.6885 16.1565 48.509C16.977 49.3294 18.0898 49.7904 19.2501 49.7904H22.1667C23.3271 49.7904 24.4399 49.3294 25.2603 48.509C26.0808 47.6885 26.5417 46.5757 26.5417 45.4154C26.5417 44.255 26.0808 43.1422 25.2603 42.3218C24.4399 41.5013 23.3271 41.0404 22.1667 41.0404H19.2501ZM44.0417 45.4154C44.0417 44.255 44.5027 43.1422 45.3232 42.3218C46.1436 41.5013 47.2564 41.0404 48.4167 41.0404H51.3334C52.4937 41.0404 53.6065 41.5013 54.427 42.3218C55.2475 43.1422 55.7084 44.255 55.7084 45.4154C55.7084 46.5757 55.2475 47.6885 54.427 48.509C53.6065 49.3294 52.4937 49.7904 51.3334 49.7904H48.4167C47.2564 49.7904 46.1436 49.3294 45.3232 48.509C44.5027 47.6885 44.0417 46.5757 44.0417 45.4154ZM45.3426 15.3066C45.1455 14.7315 44.7736 14.2323 44.2789 13.8789C43.7842 13.5254 43.1914 13.3354 42.5834 13.3354C41.9754 13.3354 41.3826 13.5254 40.8879 13.8789C40.3932 14.2323 40.0213 14.7315 39.8243 15.3066L39.4451 16.4091C39.0134 17.6742 38.2976 18.8236 37.3527 19.7691C36.4077 20.7146 35.2587 21.4309 33.9938 21.8633L32.8913 22.2395C32.3162 22.4366 31.817 22.8085 31.4636 23.3032C31.1101 23.7979 30.9202 24.3907 30.9202 24.9987C30.9202 25.6067 31.1101 26.1995 31.4636 26.6942C31.817 27.1889 32.3162 27.5608 32.8913 27.7579L33.9938 28.137C35.2589 28.5687 36.4083 29.2845 37.3538 30.2294C38.2993 31.1744 39.0157 32.3234 39.448 33.5883L39.8243 34.6908C40.0213 35.2659 40.3932 35.7651 40.8879 36.1185C41.3826 36.472 41.9754 36.662 42.5834 36.662C43.1914 36.662 43.7842 36.472 44.2789 36.1185C44.7736 35.7651 45.1455 35.2659 45.3426 34.6908L45.7217 33.5883C46.1534 32.3232 46.8692 31.1738 47.8141 30.2283C48.7591 29.2828 49.9081 28.5664 51.173 28.1341L52.2755 27.7579C52.8507 27.5608 53.3498 27.1889 53.7033 26.6942C54.0567 26.1995 54.2467 25.6067 54.2467 24.9987C54.2467 24.3907 54.0567 23.7979 53.7033 23.3032C53.3498 22.8085 52.8507 22.4366 52.2755 22.2395L51.173 21.8604C49.9079 21.4287 48.7585 20.7129 47.813 19.768C46.8676 18.823 46.1512 17.674 45.7188 16.4091L45.3426 15.3066Z" fill="white"/>
</svg>
