<svg width="62" height="62" viewBox="0 0 62 62" fill="none" xmlns="http://www.w3.org/2000/svg">
<path d="M14.4975 24.4024C15.775 25.6974 16.5188 27.3905 16.9781 29.0836C17.875 32.3736 17.875 36.4424 17.875 39.588V39.7499C17.875 48.7536 16.1906 54.0999 14.2831 57.2805C13.5604 58.5314 12.6143 59.6391 11.4919 60.5486C11.0454 60.8941 10.561 61.1877 10.0481 61.4236C10.0481 61.4236 9.4925 61.6249 9.125 61.6249C8.80961 61.5998 8.49907 61.5321 8.20188 61.4236C7.68898 61.1877 7.20461 60.8941 6.75813 60.5486C5.63569 59.6391 4.68962 58.5314 3.96687 57.2805C2.05937 54.1043 0.375 48.7536 0.375 39.7499V39.5924C0.375 36.4424 0.375 32.378 1.27188 29.0792C1.73125 27.3905 2.475 25.6974 3.7525 24.398C1.6875 22.4424 0.375 19.3274 0.375 15.6874C0.375 14.2611 0.755625 12.5592 1.28063 10.9886C1.80563 9.418 2.54063 7.78612 3.38937 6.47362C4.4 4.76737 5.82188 3.33675 6.92438 2.37425C7.53104 1.84533 8.1617 1.34459 8.81437 0.873624L8.94563 0.786124L8.985 0.7555L8.99813 0.74675L9.00688 0.742374C9.4082 0.469242 9.88897 0.337362 10.3735 0.367504C10.858 0.397646 11.3187 0.588098 11.6831 0.908866C12.0475 1.22963 12.2948 1.66249 12.3861 2.13927C12.4774 2.61605 12.4076 3.10967 12.1875 3.54237C12.1491 3.66857 12.1299 3.79984 12.1306 3.93175C12.1306 4.20737 12.2006 4.73237 12.8612 5.38862C13.1806 5.708 13.4256 5.9355 13.6925 6.18488C13.9113 6.38613 14.1431 6.59612 14.4363 6.88487C15.005 7.42737 15.6044 8.06612 16.1425 8.86675C17.2581 10.5424 17.875 12.638 17.875 15.6874C17.875 19.3274 16.5625 22.438 14.4975 24.4024ZM9.125 26.6249C8.03125 26.6249 7.375 26.9661 6.88062 27.4561C6.32937 28.0117 5.8525 28.913 5.49375 30.2299C4.7675 32.903 4.75 36.4118 4.75 39.7499C4.75 48.2461 6.34687 52.7436 7.72062 55.0317C8.24562 55.9067 8.74 56.4711 9.125 56.8255C9.67759 56.2988 10.1507 55.6946 10.5294 55.0317C11.9031 52.7393 13.5 48.2461 13.5 39.7499C13.5 36.4118 13.4825 32.903 12.7562 30.2299C12.3975 28.9174 11.9206 28.0117 11.3694 27.4561C10.875 26.9661 10.2144 26.6249 9.125 26.6249ZM4.75 15.6874C4.75 20.3774 7.44063 22.2499 9.125 22.2499C10.8094 22.2499 13.5 20.3774 13.5 15.6874C13.5 13.268 13.0231 12.0824 12.4981 11.2949C12.1781 10.8356 11.8099 10.4117 11.4 10.0305L10.8575 9.523C10.487 9.18368 10.1224 8.838 9.76375 8.48612C9.28649 8.01152 8.87587 7.47432 8.54313 6.88925C7.98643 7.47497 7.49635 8.12057 7.08187 8.81425C6.46938 9.75487 5.87437 11.0455 5.4325 12.3755C4.9775 13.7317 4.75 14.9305 4.75 15.6874ZM26.6163 44.0067C25.0997 43.8375 23.6081 43.4924 22.1712 42.9786C22.2237 41.882 22.25 40.7474 22.25 39.5749V38.2799C23.6063 38.923 25.0763 39.3736 26.6163 39.5924V30.9999C26.6163 28.6792 27.5381 26.4536 29.1791 24.8127C30.82 23.1717 33.0456 22.2499 35.3662 22.2499H43.9631C43.6151 19.8309 42.6932 17.5304 41.2744 15.5405C39.8556 13.5507 37.9812 11.9293 35.8077 10.8119C33.6342 9.69458 31.2248 9.11368 28.781 9.11777C26.3371 9.12187 23.9297 9.71086 21.76 10.8355C21.4163 9.40521 20.8494 8.03802 20.08 6.78425C22.9156 5.38287 26.047 4.68531 29.2093 4.75062C32.3716 4.81593 35.4715 5.64219 38.2468 7.15945C41.0221 8.67671 43.391 10.8403 45.1529 13.4671C46.9148 16.0938 48.0179 19.1064 48.3688 22.2499H52.8619C55.1825 22.2499 57.4081 23.1717 59.0491 24.8127C60.69 26.4536 61.6119 28.6792 61.6119 30.9999V48.4999C61.6119 50.8205 60.69 53.0461 59.0491 54.6871C57.4081 56.328 55.1825 57.2499 52.8619 57.2499H35.3619C33.0412 57.2499 30.8156 56.328 29.1747 54.6871C27.5337 53.0461 26.6119 50.8205 26.6119 48.4999L26.6163 44.0067ZM48.3731 26.6249C47.8776 31.0643 45.887 35.2033 42.7283 38.3619C39.5696 41.5206 35.4307 43.5112 30.9913 44.0067V48.4999C30.9913 49.6602 31.4522 50.773 32.2727 51.5935C33.0931 52.4139 34.2059 52.8749 35.3662 52.8749H52.8662C54.0266 52.8749 55.1394 52.4139 55.9598 51.5935C56.7803 50.773 57.2412 49.6602 57.2412 48.4999V30.9999C57.2412 29.8396 56.7803 28.7268 55.9598 27.9063C55.1394 27.0858 54.0266 26.6249 52.8662 26.6249H48.3731ZM43.9631 26.6249H35.3662C34.2059 26.6249 33.0931 27.0858 32.2727 27.9063C31.4522 28.7268 30.9913 29.8396 30.9913 30.9999V39.5968C34.2642 39.1251 37.2965 37.6066 39.6348 35.2684C41.973 32.9301 43.4915 29.8978 43.9631 26.6249Z" fill="white"/>
</svg>
