<svg width="65" height="50" viewBox="0 0 65 50" fill="none" xmlns="http://www.w3.org/2000/svg">
<path d="M22.4907 49.258C21.5065 49.258 20.6644 48.9056 19.9645 48.2009C19.2645 47.4962 18.9134 46.6529 18.911 45.6711V38.5044H28.8332V26.8586C26.559 27.3363 24.2287 27.2647 21.8422 26.6436C19.4557 26.0201 17.486 24.9248 15.9332 23.3577V18.3159H10.8449L0.858154 8.32199C2.91738 6.4491 5.25371 5.04802 7.86715 4.11874C10.4806 3.18946 13.1693 2.72602 15.9332 2.72841C18.229 2.72841 20.4614 3.05449 22.6305 3.70666C24.7996 4.35882 26.8672 5.38127 28.8332 6.77399V0.191406H64.6666V42.0877C64.6666 44.1111 63.9774 45.8108 62.599 47.1868C61.2206 48.5628 59.5209 49.2532 57.4999 49.258H22.4907ZM32.4166 38.508H53.9166V42.0913C53.9166 43.1042 54.2606 43.9547 54.9486 44.6427C55.6366 45.3307 56.487 45.6735 57.4999 45.6711C58.5128 45.6687 59.3644 45.3259 60.0548 44.6427C60.7452 43.9594 61.088 43.1078 61.0832 42.0877V3.77474H32.4166V9.50807L52.1249 29.2164V31.7534H49.5879L38.6874 20.8493L36.6628 22.8775C35.9629 23.575 35.2761 24.1603 34.6024 24.6333C33.9287 25.1063 33.2001 25.522 32.4166 25.8803V38.508ZM12.3786 14.729H19.5166V21.7416C20.7397 22.4965 21.8768 23.0101 22.9279 23.2824C23.979 23.5547 25.0015 23.6897 25.9952 23.6873C27.6269 23.6873 29.1092 23.409 30.4422 22.8524C31.7775 22.2958 33.0281 21.4346 34.1939 20.2688L36.1504 18.3123L29.8939 12.0558C27.978 10.1399 25.8304 8.70302 23.4511 7.74507C21.0717 6.78713 18.5658 6.30935 15.9332 6.31174C14.1893 6.31174 12.492 6.53868 10.8413 6.99257C9.19299 7.44646 7.71546 8.03652 6.40874 8.76274L12.3786 14.729ZM50.3332 42.0877H22.4907V45.6711H51.4226C51.0141 45.1813 50.7298 44.6295 50.5697 44.0156C50.4121 43.404 50.3332 42.7626 50.3332 42.0913" fill="white"/>
</svg>
