<svg width="62" height="50" viewBox="0 0 62 50" fill="none" xmlns="http://www.w3.org/2000/svg">
<path d="M61.625 0.183594L58.825 1.00391L8.71375 16.2486H0.375V33.7486H8.71594L13.0209 35.048L12.9553 35.2514V35.3214C11.5509 39.9414 14.1519 45.0777 18.9709 46.5302C18.9928 46.5367 19.0191 46.5236 19.0366 46.5302C23.6806 47.9411 28.8212 45.3708 30.2497 40.5145L30.3153 40.3089L58.825 48.9933L61.625 49.8114V0.183594ZM57.25 6.06359V43.9336L9.7375 29.4392L9.46844 29.3736H4.75V20.6236H9.46625L9.73969 20.558L57.25 6.06359ZM17.1903 36.3452L26.1459 39.0139L26.0803 39.2173V39.283C25.3278 41.8423 22.6109 43.0936 20.2703 42.3608C17.7109 41.6105 16.3941 38.9614 17.1247 36.6186V36.553L17.1903 36.3452Z" fill="white"/>
</svg>
