<svg width="62" height="48" viewBox="0 0 62 48" fill="none" xmlns="http://www.w3.org/2000/svg">
<path d="M9.40333 37.32H52.5967V33.8914H9.40333V37.32ZM9.40333 25.7143H52.5967V22.2857H9.40333V25.7143ZM9.40333 14.112H39.6111V10.6834H9.40333V14.112ZM5.56622 48C3.98178 48 2.65796 47.472 1.59478 46.416C0.531593 45.36 0 44.0411 0 42.4594V5.54057C0 3.96114 0.531593 2.64343 1.59478 1.58743C2.65796 0.531428 3.98063 0.00228571 5.56278 0H56.4372C58.0217 0 59.3443 0.529142 60.4052 1.58743C61.4661 2.64571 61.9977 3.96343 62 5.54057V42.4629C62 44.04 61.4684 45.3577 60.4052 46.416C59.342 47.4743 58.0194 48.0023 56.4372 48H5.56622ZM5.56622 44.5714H56.4407C56.9688 44.5714 57.4545 44.352 57.8977 43.9131C58.3409 43.4743 58.5613 42.9897 58.559 42.4594V5.54057C58.559 5.01257 58.3386 4.528 57.8977 4.08686C57.4568 3.64571 56.97 3.42629 56.4372 3.42857H5.56278C5.03463 3.42857 4.54896 3.648 4.10578 4.08686C3.66259 4.52571 3.44215 5.01029 3.44444 5.54057V42.4629C3.44444 42.9886 3.66489 43.472 4.10578 43.9131C4.54667 44.3543 5.03233 44.5737 5.56278 44.5714" fill="white"/>
</svg>
