{
  "accessors": [
    {
      "bufferView": 2,
      "componentType": 5126,
      "count": 532,
      "max": [
        0.29835665225982666,
        0.30000001192092896,
        0.3000001609325409
      ],
      "min": [
        -0.2983568608760834,
        -0.30000001192092896,
        -0.30000001192092896
      ],
      "type": "VEC3"
    },
    {
      "bufferView": 2,
      "byteOffset": 6384,
      "componentType": 5126,
      "count": 532,
      "max": [
        0.9993405342102051,
        1.0,
        1.0
      ],
      "min": [
        -0.9998232126235962,
        -1.0,
        -1.0
      ],
      "type": "VEC3"
    },
    {
      "bufferView": 1,
      "componentType": 5126,
      "count": 532,
      "max": [
        1.0,
        1.0
      ],
      "min": [
        0.0,
        0.0
      ],
      "type": "VEC2"
    },
    {
      "bufferView": 0,
      "componentType": 5125,
      "count": 1698,
      "type": "SCALAR"
    },
    {
      "bufferView": 2,
      "byteOffset": 12768,
      "componentType": 5126,
      "count": 407,
      "max": [
        0.27746081352233887,
        0.2276986837387085,
        0.08338120579719543
      ],
      "min": [
        -0.27756190299987793,
        0.10242173075675964,
        -0.08338122814893723
      ],
      "type": "VEC3"
    },
    {
      "bufferView": 2,
      "byteOffset": 17652,
      "componentType": 5126,
      "count": 407,
      "max": [
        0.999221682548523,
        0.9993176460266113,
        0.9049723744392395
      ],
      "min": [
        -0.9998232126235962,
        -0.6047700047492981,
        -0.9049668908119202
      ],
      "type": "VEC3"
    },
    {
      "bufferView": 1,
      "byteOffset": 4256,
      "componentType": 5126,
      "count": 407,
      "max": [
        1.0,
        0.9671568870544434
      ],
      "min": [
        0.0,
        0.01608455367386341
      ],
      "type": "VEC2"
    },
    {
      "bufferView": 0,
      "byteOffset": 6792,
      "componentType": 5125,
      "count": 1650,
      "type": "SCALAR"
    },
    {
      "bufferView": 2,
      "byteOffset": 22536,
      "componentType": 5126,
      "count": 124,
      "max": [
        0.2413756251335144,
        0.28531697392463684,
        0.24270524084568024
      ],
      "min": [
        -0.24137571454048157,
        -0.24270512163639069,
        -0.2427051067352295
      ],
      "type": "VEC3"
    },
    {
      "bufferView": 2,
      "byteOffset": 24024,
      "componentType": 5126,
      "count": 124,
      "max": [
        0.8081079125404358,
        0.9479693174362183,
        0.8125606179237366
      ],
      "min": [
        -0.8081079125404358,
        -0.8040889501571655,
        -0.8125606179237366
      ],
      "type": "VEC3"
    },
    {
      "bufferView": 1,
      "byteOffset": 7512,
      "componentType": 5126,
      "count": 124,
      "max": [
        1.0,
        0.9000000357627869
      ],
      "min": [
        0.0,
        0.19999998807907104
      ],
      "type": "VEC2"
    },
    {
      "bufferView": 0,
      "byteOffset": 13392,
      "componentType": 5125,
      "count": 360,
      "type": "SCALAR"
    },
    {
      "bufferView": 2,
      "byteOffset": 25512,
      "componentType": 5126,
      "count": 34,
      "max": [
        1.9210100173950195,
        1.908483862876892,
        1.0068080425262451
      ],
      "min": [
        -1.9210102558135986,
        -1.908483862876892,
        -1.0
      ],
      "type": "VEC3"
    },
    {
      "bufferView": 2,
      "byteOffset": 25920,
      "componentType": 5126,
      "count": 34,
      "max": [
        0.9024794101715088,
        0.6968886256217957,
        0.5519413948059082
      ],
      "min": [
        -0.6595435738563538,
        -0.7227811217308044,
        -0.7856873869895935
      ],
      "type": "VEC3"
    },
    {
      "bufferView": 1,
      "byteOffset": 8504,
      "componentType": 5126,
      "count": 34,
      "max": [
        0.875,
        1.0
      ],
      "min": [
        0.125,
        0.0
      ],
      "type": "VEC2"
    },
    {
      "bufferView": 0,
      "byteOffset": 14832,
      "componentType": 5125,
      "count": 78,
      "type": "SCALAR"
    },
    {
      "bufferView": 2,
      "byteOffset": 26328,
      "componentType": 5126,
      "count": 4,
      "max": [
        1.1618273258209229,
        0.9690709114074707,
        0.5112268328666687
      ],
      "min": [
        0.7532587051391602,
        -0.9690707921981812,
        -0.7006415724754333
      ],
      "type": "VEC3"
    },
    {
      "bufferView": 2,
      "byteOffset": 26376,
      "componentType": 5126,
      "count": 4,
      "max": [
        0.7073456048965454,
        0.6968886256217957,
        0.5519413948059082
      ],
      "min": [
        0.46881431341171265,
        -0.7227811217308044,
        -0.5427332520484924
      ],
      "type": "VEC3"
    },
    {
      "bufferView": 1,
      "byteOffset": 8776,
      "componentType": 5126,
      "count": 4,
      "max": [
        0.625,
        0.25
      ],
      "min": [
        0.375,
        0.0
      ],
      "type": "VEC2"
    },
    {
      "bufferView": 0,
      "byteOffset": 15144,
      "componentType": 5125,
      "count": 6,
      "type": "SCALAR"
    },
    {
      "bufferView": 2,
      "byteOffset": 26424,
      "componentType": 5126,
      "count": 130,
      "max": [
        0.019999999552965164,
        0.009999999776482582,
        0.019999999552965164
      ],
      "min": [
        -0.019999999552965164,
        -0.009999999776482582,
        -0.019999999552965164
      ],
      "type": "VEC3"
    },
    {
      "bufferView": 2,
      "byteOffset": 27984,
      "componentType": 5126,
      "count": 130,
      "max": [
        0.7278809547424316,
        0.6857142448425293,
        0.7278809547424316
      ],
      "min": [
        -0.7278809547424316,
        -0.6857142448425293,
        -0.7278809547424316
      ],
      "type": "VEC3"
    },
    {
      "bufferView": 1,
      "byteOffset": 8808,
      "componentType": 5126,
      "count": 130,
      "max": [
        1.0,
        1.0
      ],
      "min": [
        0.0,
        0.01000000536441803
      ],
      "type": "VEC2"
    },
    {
      "bufferView": 0,
      "byteOffset": 15168,
      "componentType": 5125,
      "count": 372,
      "type": "SCALAR"
    },
    {
      "bufferView": 2,
      "byteOffset": 29544,
      "componentType": 5126,
      "count": 130,
      "max": [
        0.019999999552965164,
        0.009999999776482582,
        0.019999999552965164
      ],
      "min": [
        -0.019999999552965164,
        -0.009999999776482582,
        -0.019999999552965164
      ],
      "type": "VEC3"
    },
    {
      "bufferView": 2,
      "byteOffset": 31104,
      "componentType": 5126,
      "count": 130,
      "max": [
        0.7278809547424316,
        0.6857142448425293,
        0.7278809547424316
      ],
      "min": [
        -0.7278809547424316,
        -0.6857142448425293,
        -0.7278809547424316
      ],
      "type": "VEC3"
    },
    {
      "bufferView": 1,
      "byteOffset": 9848,
      "componentType": 5126,
      "count": 130,
      "max": [
        1.0,
        1.0
      ],
      "min": [
        0.0,
        0.01000000536441803
      ],
      "type": "VEC2"
    },
    {
      "bufferView": 0,
      "byteOffset": 16656,
      "componentType": 5125,
      "count": 372,
      "type": "SCALAR"
    },
    {
      "bufferView": 2,
      "byteOffset": 32664,
      "componentType": 5126,
      "count": 130,
      "max": [
        0.019999999552965164,
        0.009999999776482582,
        0.019999999552965164
      ],
      "min": [
        -0.019999999552965164,
        -0.009999999776482582,
        -0.019999999552965164
      ],
      "type": "VEC3"
    },
    {
      "bufferView": 2,
      "byteOffset": 34224,
      "componentType": 5126,
      "count": 130,
      "max": [
        0.7278809547424316,
        0.6857142448425293,
        0.7278809547424316
      ],
      "min": [
        -0.7278809547424316,
        -0.6857142448425293,
        -0.7278809547424316
      ],
      "type": "VEC3"
    },
    {
      "bufferView": 1,
      "byteOffset": 10888,
      "componentType": 5126,
      "count": 130,
      "max": [
        1.0,
        1.0
      ],
      "min": [
        0.0,
        0.01000000536441803
      ],
      "type": "VEC2"
    },
    {
      "bufferView": 0,
      "byteOffset": 18144,
      "componentType": 5125,
      "count": 372,
      "type": "SCALAR"
    },
    {
      "bufferView": 2,
      "byteOffset": 35784,
      "componentType": 5126,
      "count": 529,
      "max": [
        0.29835665225982666,
        0.29999998211860657,
        0.22717790305614471
      ],
      "min": [
        -0.2983568608760834,
        -0.29999998211860657,
        -0.29999998211860657
      ],
      "type": "VEC3"
    },
    {
      "bufferView": 2,
      "byteOffset": 42132,
      "componentType": 5126,
      "count": 529,
      "max": [
        0.9945220947265625,
        1.0,
        1.0
      ],
      "min": [
        -0.9945220947265625,
        -1.0,
        -1.0
      ],
      "type": "VEC3"
    },
    {
      "bufferView": 1,
      "byteOffset": 11928,
      "componentType": 5126,
      "count": 529,
      "max": [
        1.0,
        1.0
      ],
      "min": [
        0.0,
        0.0
      ],
      "type": "VEC2"
    },
    {
      "bufferView": 0,
      "byteOffset": 19632,
      "componentType": 5125,
      "count": 2220,
      "type": "SCALAR"
    },
    {
      "bufferView": 2,
      "byteOffset": 48480,
      "componentType": 5126,
      "count": 14,
      "max": [
        1.0,
        1.5192023515701294,
        5.585775852203369
      ],
      "min": [
        -1.0,
        -1.7540781497955322,
        -0.4459385871887207
      ],
      "type": "VEC3"
    },
    {
      "bufferView": 2,
      "byteOffset": 48648,
      "componentType": 5126,
      "count": 14,
      "max": [
        0.6425613760948181,
        0.739797055721283,
        0.7934051156044006
      ],
      "min": [
        -0.6425613760948181,
        -0.689736545085907,
        -0.7697656154632568
      ],
      "type": "VEC3"
    },
    {
      "bufferView": 1,
      "byteOffset": 16160,
      "componentType": 5126,
      "count": 14,
      "max": [
        0.875,
        1.0
      ],
      "min": [
        0.125,
        0.0
      ],
      "type": "VEC2"
    },
    {
      "bufferView": 0,
      "byteOffset": 28512,
      "componentType": 5125,
      "count": 36,
      "type": "SCALAR"
    },
    {
      "bufferView": 2,
      "byteOffset": 48816,
      "componentType": 5126,
      "count": 130,
      "max": [
        0.019999999552965164,
        0.009999999776482582,
        0.019999999552965164
      ],
      "min": [
        -0.02000000700354576,
        -0.156843900680542,
        -0.019999999552965164
      ],
      "type": "VEC3"
    },
    {
      "bufferView": 2,
      "byteOffset": 50376,
      "componentType": 5126,
      "count": 130,
      "max": [
        0.7278809547424316,
        0.6857142448425293,
        0.7278809547424316
      ],
      "min": [
        -0.7278809547424316,
        -0.6857142448425293,
        -0.7278809547424316
      ],
      "type": "VEC3"
    },
    {
      "bufferView": 1,
      "byteOffset": 16272,
      "componentType": 5126,
      "count": 130,
      "max": [
        1.0,
        1.0
      ],
      "min": [
        0.0,
        0.01000000536441803
      ],
      "type": "VEC2"
    },
    {
      "bufferView": 0,
      "byteOffset": 28656,
      "componentType": 5125,
      "count": 372,
      "type": "SCALAR"
    },
    {
      "bufferView": 2,
      "byteOffset": 51936,
      "componentType": 5126,
      "count": 130,
      "max": [
        0.019999999552965164,
        0.0233455877751112,
        0.019999999552965164
      ],
      "min": [
        -0.019999999552965164,
        -0.009999999776482582,
        -0.019999999552965164
      ],
      "type": "VEC3"
    },
    {
      "bufferView": 2,
      "byteOffset": 53496,
      "componentType": 5126,
      "count": 130,
      "max": [
        0.7278809547424316,
        0.6857142448425293,
        0.7278809547424316
      ],
      "min": [
        -0.7278809547424316,
        -0.6857142448425293,
        -0.7278809547424316
      ],
      "type": "VEC3"
    },
    {
      "bufferView": 1,
      "byteOffset": 17312,
      "componentType": 5126,
      "count": 130,
      "max": [
        1.0,
        1.0
      ],
      "min": [
        0.0,
        0.01000000536441803
      ],
      "type": "VEC2"
    },
    {
      "bufferView": 0,
      "byteOffset": 30144,
      "componentType": 5125,
      "count": 372,
      "type": "SCALAR"
    },
    {
      "bufferView": 2,
      "byteOffset": 55056,
      "componentType": 5126,
      "count": 130,
      "max": [
        0.019999999552965164,
        0.0233455877751112,
        0.019999999552965164
      ],
      "min": [
        -0.019999999552965164,
        -0.009999999776482582,
        -0.019999999552965164
      ],
      "type": "VEC3"
    },
    {
      "bufferView": 2,
      "byteOffset": 56616,
      "componentType": 5126,
      "count": 130,
      "max": [
        0.7278809547424316,
        0.6857142448425293,
        0.7278809547424316
      ],
      "min": [
        -0.7278809547424316,
        -0.6857142448425293,
        -0.7278809547424316
      ],
      "type": "VEC3"
    },
    {
      "bufferView": 1,
      "byteOffset": 18352,
      "componentType": 5126,
      "count": 130,
      "max": [
        1.0,
        1.0
      ],
      "min": [
        0.0,
        0.01000000536441803
      ],
      "type": "VEC2"
    },
    {
      "bufferView": 0,
      "byteOffset": 31632,
      "componentType": 5125,
      "count": 372,
      "type": "SCALAR"
    },
    {
      "bufferView": 2,
      "byteOffset": 58176,
      "componentType": 5126,
      "count": 130,
      "max": [
        0.019999999552965164,
        0.0233455877751112,
        0.019999999552965164
      ],
      "min": [
        -0.019999999552965164,
        -0.009999999776482582,
        -0.019999999552965164
      ],
      "type": "VEC3"
    },
    {
      "bufferView": 2,
      "byteOffset": 59736,
      "componentType": 5126,
      "count": 130,
      "max": [
        0.7278809547424316,
        0.6857142448425293,
        0.7278809547424316
      ],
      "min": [
        -0.7278809547424316,
        -0.6857142448425293,
        -0.7278809547424316
      ],
      "type": "VEC3"
    },
    {
      "bufferView": 1,
      "byteOffset": 19392,
      "componentType": 5126,
      "count": 130,
      "max": [
        1.0,
        1.0
      ],
      "min": [
        0.0,
        0.01000000536441803
      ],
      "type": "VEC2"
    },
    {
      "bufferView": 0,
      "byteOffset": 33120,
      "componentType": 5125,
      "count": 372,
      "type": "SCALAR"
    },
    {
      "bufferView": 2,
      "byteOffset": 61296,
      "componentType": 5126,
      "count": 130,
      "max": [
        0.019999999552965164,
        0.009999999776482582,
        0.019999999552965164
      ],
      "min": [
        -0.019999999552965164,
        -0.009999999776482582,
        -0.019999999552965164
      ],
      "type": "VEC3"
    },
    {
      "bufferView": 2,
      "byteOffset": 62856,
      "componentType": 5126,
      "count": 130,
      "max": [
        0.7278809547424316,
        0.6857142448425293,
        0.7278809547424316
      ],
      "min": [
        -0.7278809547424316,
        -0.6857142448425293,
        -0.7278809547424316
      ],
      "type": "VEC3"
    },
    {
      "bufferView": 1,
      "byteOffset": 20432,
      "componentType": 5126,
      "count": 130,
      "max": [
        1.0,
        1.0
      ],
      "min": [
        0.0,
        0.01000000536441803
      ],
      "type": "VEC2"
    },
    {
      "bufferView": 0,
      "byteOffset": 34608,
      "componentType": 5125,
      "count": 372,
      "type": "SCALAR"
    },
    {
      "bufferView": 2,
      "byteOffset": 64416,
      "componentType": 5126,
      "count": 130,
      "max": [
        0.019999999552965164,
        0.009999999776482582,
        0.019999999552965164
      ],
      "min": [
        -0.019999999552965164,
        -0.009999999776482582,
        -0.019999999552965164
      ],
      "type": "VEC3"
    },
    {
      "bufferView": 2,
      "byteOffset": 65976,
      "componentType": 5126,
      "count": 130,
      "max": [
        0.7278809547424316,
        0.6857142448425293,
        0.7278809547424316
      ],
      "min": [
        -0.7278809547424316,
        -0.6857142448425293,
        -0.7278809547424316
      ],
      "type": "VEC3"
    },
    {
      "bufferView": 1,
      "byteOffset": 21472,
      "componentType": 5126,
      "count": 130,
      "max": [
        1.0,
        1.0
      ],
      "min": [
        0.0,
        0.01000000536441803
      ],
      "type": "VEC2"
    },
    {
      "bufferView": 0,
      "byteOffset": 36096,
      "componentType": 5125,
      "count": 372,
      "type": "SCALAR"
    },
    {
      "bufferView": 2,
      "byteOffset": 67536,
      "componentType": 5126,
      "count": 130,
      "max": [
        0.019999999552965164,
        0.009999999776482582,
        0.019999999552965164
      ],
      "min": [
        -0.019999999552965164,
        -0.009999999776482582,
        -0.019999999552965164
      ],
      "type": "VEC3"
    },
    {
      "bufferView": 2,
      "byteOffset": 69096,
      "componentType": 5126,
      "count": 130,
      "max": [
        0.7278809547424316,
        0.6857142448425293,
        0.7278809547424316
      ],
      "min": [
        -0.7278809547424316,
        -0.6857142448425293,
        -0.7278809547424316
      ],
      "type": "VEC3"
    },
    {
      "bufferView": 1,
      "byteOffset": 22512,
      "componentType": 5126,
      "count": 130,
      "max": [
        1.0,
        1.0
      ],
      "min": [
        0.0,
        0.01000000536441803
      ],
      "type": "VEC2"
    },
    {
      "bufferView": 0,
      "byteOffset": 37584,
      "componentType": 5125,
      "count": 372,
      "type": "SCALAR"
    },
    {
      "bufferView": 2,
      "byteOffset": 70656,
      "componentType": 5126,
      "count": 339,
      "max": [
        0.029835663735866547,
        0.029999999329447746,
        0.03000001236796379
      ],
      "min": [
        -0.02983568049967289,
        -0.029999999329447746,
        -0.030000029131770134
      ],
      "type": "VEC3"
    },
    {
      "bufferView": 2,
      "byteOffset": 74724,
      "componentType": 5126,
      "count": 339,
      "max": [
        0.9945220947265625,
        1.0,
        1.0
      ],
      "min": [
        -0.9945220947265625,
        -1.0,
        -1.0
      ],
      "type": "VEC3"
    },
    {
      "bufferView": 1,
      "byteOffset": 23552,
      "componentType": 5126,
      "count": 339,
      "max": [
        1.0,
        1.0
      ],
      "min": [
        0.0,
        0.0
      ],
      "type": "VEC2"
    },
    {
      "bufferView": 0,
      "byteOffset": 39072,
      "componentType": 5125,
      "count": 1620,
      "type": "SCALAR"
    },
    {
      "bufferView": 2,
      "byteOffset": 78792,
      "componentType": 5126,
      "count": 176,
      "max": [
        0.09993908554315567,
        0.35490545630455017,
        0.09975641220808029
      ],
      "min": [
        -0.09993908554315567,
        -0.25,
        -0.09902680665254593
      ],
      "type": "VEC3"
    },
    {
      "bufferView": 2,
      "byteOffset": 80904,
      "componentType": 5126,
      "count": 176,
      "max": [
        0.9599872827529907,
        0.691753625869751,
        0.9582343697547913
      ],
      "min": [
        -0.9599872827529907,
        -0.691753625869751,
        -0.9585956335067749
      ],
      "type": "VEC3"
    },
    {
      "bufferView": 1,
      "byteOffset": 26264,
      "componentType": 5126,
      "count": 176,
      "max": [
        0.9555555582046509,
        1.0
      ],
      "min": [
        0.022222278639674187,
        0.08347167074680328
      ],
      "type": "VEC2"
    },
    {
      "bufferView": 0,
      "byteOffset": 45552,
      "componentType": 5125,
      "count": 522,
      "type": "SCALAR"
    },
    {
      "bufferView": 2,
      "byteOffset": 83016,
      "componentType": 5126,
      "count": 90,
      "max": [
        0.09993908554315567,
        0.35490545630455017,
        0.09975641220808029
      ],
      "min": [
        -0.09993908554315567,
        -0.25,
        -0.10000000149011612
      ],
      "type": "VEC3"
    },
    {
      "bufferView": 2,
      "byteOffset": 84096,
      "componentType": 5126,
      "count": 90,
      "max": [
        0.7217085361480713,
        0.691753625869751,
        0.7203928828239441
      ],
      "min": [
        -0.7217085361480713,
        -0.691753625869751,
        -0.7221419811248779
      ],
      "type": "VEC3"
    },
    {
      "bufferView": 1,
      "byteOffset": 27672,
      "componentType": 5126,
      "count": 90,
      "max": [
        0.9898537993431091,
        0.49000000953674316
      ],
      "min": [
        0.08316673338413239,
        0.010584622621536255
      ],
      "type": "VEC2"
    },
    {
      "bufferView": 0,
      "byteOffset": 47640,
      "componentType": 5125,
      "count": 258,
      "type": "SCALAR"
    },
    {
      "bufferView": 2,
      "byteOffset": 85176,
      "componentType": 5126,
      "count": 100,
      "max": [
        0.09993908554315567,
        0.2974514663219452,
        0.09975641220808029
      ],
      "min": [
        -0.09993908554315567,
        -0.25,
        -0.10000000149011612
      ],
      "type": "VEC3"
    },
    {
      "bufferView": 2,
      "byteOffset": 86376,
      "componentType": 5126,
      "count": 100,
      "max": [
        0.9599872827529907,
        0.28477922081947327,
        0.9582343697547913
      ],
      "min": [
        -0.9599872827529907,
        -0.6917510032653809,
        -0.9605716466903687
      ],
      "type": "VEC3"
    },
    {
      "bufferView": 1,
      "byteOffset": 28392,
      "componentType": 5126,
      "count": 100,
      "max": [
        1.0,
        1.0
      ],
      "min": [
        5.587935447692871e-08,
        0.010584622621536255
      ],
      "type": "VEC2"
    },
    {
      "bufferView": 0,
      "byteOffset": 48672,
      "componentType": 5125,
      "count": 288,
      "type": "SCALAR"
    },
    {
      "bufferView": 2,
      "byteOffset": 87576,
      "componentType": 5126,
      "count": 143,
      "max": [
        0.049240387976169586,
        0.08476189523935318,
        0.049878206104040146
      ],
      "min": [
        -0.049969542771577835,
        -0.08983912318944931,
        -0.05000000074505806
      ],
      "type": "VEC3"
    },
    {
      "bufferView": 2,
      "byteOffset": 89292,
      "componentType": 5126,
      "count": 143,
      "max": [
        0.912006676197052,
        0.37734702229499817,
        0.9238200783729553
      ],
      "min": [
        -0.9255130290985107,
        -0.37734702229499817,
        -0.9260750412940979
      ],
      "type": "VEC3"
    },
    {
      "bufferView": 1,
      "byteOffset": 29192,
      "componentType": 5126,
      "count": 143,
      "max": [
        1.0,
        0.961904764175415
      ],
      "min": [
        5.587935447692871e-08,
        0.5254021883010864
      ],
      "type": "VEC2"
    },
    {
      "bufferView": 0,
      "byteOffset": 49824,
      "componentType": 5125,
      "count": 252,
      "type": "SCALAR"
    },
    {
      "bufferView": 2,
      "byteOffset": 91008,
      "componentType": 5126,
      "count": 332,
      "max": [
        0.049969542771577835,
        0.10000000149011612,
        0.049878206104040146
      ],
      "min": [
        -0.049969542771577835,
        -0.10000000149011612,
        -0.05000000074505806
      ],
      "type": "VEC3"
    },
    {
      "bufferView": 2,
      "byteOffset": 94992,
      "componentType": 5126,
      "count": 332,
      "max": [
        0.9255130290985107,
        0.918075442314148,
        0.9238200783729553
      ],
      "min": [
        -0.9255130290985107,
        -0.918075442314148,
        -0.9260750412940979
      ],
      "type": "VEC3"
    },
    {
      "bufferView": 1,
      "byteOffset": 30336,
      "componentType": 5126,
      "count": 332,
      "max": [
        1.0,
        1.0
      ],
      "min": [
        5.587935447692871e-08,
        0.5
      ],
      "type": "VEC2"
    },
    {
      "bufferView": 0,
      "byteOffset": 50832,
      "componentType": 5125,
      "count": 540,
      "type": "SCALAR"
    },
    {
      "bufferView": 2,
      "byteOffset": 98976,
      "componentType": 5126,
      "count": 100,
      "max": [
        0.049969542771577835,
        0.10000000149011612,
        0.03971732407808304
      ],
      "min": [
        -0.03979005664587021,
        -0.10000000149011612,
        -0.039814308285713196
      ],
      "type": "VEC3"
    },
    {
      "bufferView": 2,
      "byteOffset": 100176,
      "componentType": 5126,
      "count": 100,
      "max": [
        0.9255130290985107,
        0.918075442314148,
        0.39546239376068115
      ],
      "min": [
        -0.3961935043334961,
        -0.918075442314148,
        -0.3964371979236603
      ],
      "type": "VEC3"
    },
    {
      "bufferView": 1,
      "byteOffset": 32992,
      "componentType": 5126,
      "count": 100,
      "max": [
        0.9409918785095215,
        0.961904764175415
      ],
      "min": [
        0.08342304825782776,
        0.059356849640607834
      ],
      "type": "VEC2"
    },
    {
      "bufferView": 0,
      "byteOffset": 52992,
      "componentType": 5125,
      "count": 276,
      "type": "SCALAR"
    },
    {
      "bufferView": 2,
      "byteOffset": 101376,
      "componentType": 5126,
      "count": 152,
      "max": [
        0.049969542771577835,
        0.08476189523935318,
        0.049878206104040146
      ],
      "min": [
        -0.049969542771577835,
        -0.08983912318944931,
        -0.05000000074505806
      ],
      "type": "VEC3"
    },
    {
      "bufferView": 2,
      "byteOffset": 103200,
      "componentType": 5126,
      "count": 152,
      "max": [
        0.9255130290985107,
        0.37734702229499817,
        0.9238200783729553
      ],
      "min": [
        -0.9255130290985107,
        -0.37734702229499817,
        -0.9260750412940979
      ],
      "type": "VEC3"
    },
    {
      "bufferView": 1,
      "byteOffset": 33792,
      "componentType": 5126,
      "count": 152,
      "max": [
        1.0,
        0.961904764175415
      ],
      "min": [
        5.587935447692871e-08,
        0.5254021883010864
      ],
      "type": "VEC2"
    },
    {
      "bufferView": 0,
      "byteOffset": 54096,
      "componentType": 5125,
      "count": 270,
      "type": "SCALAR"
    },
    {
      "bufferView": 2,
      "byteOffset": 105024,
      "componentType": 5126,
      "count": 332,
      "max": [
        0.049969542771577835,
        0.10000000149011612,
        0.049878206104040146
      ],
      "min": [
        -0.049969542771577835,
        -0.10000000149011612,
        -0.05000000074505806
      ],
      "type": "VEC3"
    },
    {
      "bufferView": 2,
      "byteOffset": 109008,
      "componentType": 5126,
      "count": 332,
      "max": [
        0.9255130290985107,
        0.918075442314148,
        0.9238200783729553
      ],
      "min": [
        -0.9255130290985107,
        -0.918075442314148,
        -0.9260750412940979
      ],
      "type": "VEC3"
    },
    {
      "bufferView": 1,
      "byteOffset": 35008,
      "componentType": 5126,
      "count": 332,
      "max": [
        1.0,
        1.0
      ],
      "min": [
        5.587935447692871e-08,
        0.5
      ],
      "type": "VEC2"
    },
    {
      "bufferView": 0,
      "byteOffset": 55176,
      "componentType": 5125,
      "count": 540,
      "type": "SCALAR"
    },
    {
      "bufferView": 2,
      "byteOffset": 112992,
      "componentType": 5126,
      "count": 90,
      "max": [
        0.03979005664587021,
        0.10000000149011612,
        0.03971732407808304
      ],
      "min": [
        -0.03979005664587021,
        -0.10000000149011612,
        -0.039814308285713196
      ],
      "type": "VEC3"
    },
    {
      "bufferView": 2,
      "byteOffset": 114072,
      "componentType": 5126,
      "count": 90,
      "max": [
        0.3961935043334961,
        0.918075442314148,
        0.39546239376068115
      ],
      "min": [
        -0.3961935043334961,
        -0.918075442314148,
        -0.3964371979236603
      ],
      "type": "VEC3"
    },
    {
      "bufferView": 1,
      "byteOffset": 37664,
      "componentType": 5126,
      "count": 90,
      "max": [
        0.9409918785095215,
        0.44110867381095886
      ],
      "min": [
        0.08342304825782776,
        0.059356849640607834
      ],
      "type": "VEC2"
    },
    {
      "bufferView": 0,
      "byteOffset": 57336,
      "componentType": 5125,
      "count": 258,
      "type": "SCALAR"
    },
    {
      "bufferView": 2,
      "byteOffset": 115152,
      "componentType": 5126,
      "count": 34,
      "max": [
        1.9210100173950195,
        1.908483862876892,
        1.0068080425262451
      ],
      "min": [
        -1.9210102558135986,
        -1.908483862876892,
        -1.0
      ],
      "type": "VEC3"
    },
    {
      "bufferView": 2,
      "byteOffset": 115560,
      "componentType": 5126,
      "count": 34,
      "max": [
        0.9024794101715088,
        0.6968886256217957,
        0.5519413948059082
      ],
      "min": [
        -0.6595435738563538,
        -0.7227811217308044,
        -0.7856873869895935
      ],
      "type": "VEC3"
    },
    {
      "bufferView": 1,
      "byteOffset": 38384,
      "componentType": 5126,
      "count": 34,
      "max": [
        0.875,
        1.0
      ],
      "min": [
        0.125,
        0.0
      ],
      "type": "VEC2"
    },
    {
      "bufferView": 0,
      "byteOffset": 58368,
      "componentType": 5125,
      "count": 78,
      "type": "SCALAR"
    },
    {
      "bufferView": 2,
      "byteOffset": 115968,
      "componentType": 5126,
      "count": 4,
      "max": [
        1.1618273258209229,
        0.9690709114074707,
        0.5112268328666687
      ],
      "min": [
        0.7532587051391602,
        -0.9690707921981812,
        -0.7006415724754333
      ],
      "type": "VEC3"
    },
    {
      "bufferView": 2,
      "byteOffset": 116016,
      "componentType": 5126,
      "count": 4,
      "max": [
        0.7073456048965454,
        0.6968886256217957,
        0.5519413948059082
      ],
      "min": [
        0.46881431341171265,
        -0.7227811217308044,
        -0.5427332520484924
      ],
      "type": "VEC3"
    },
    {
      "bufferView": 1,
      "byteOffset": 38656,
      "componentType": 5126,
      "count": 4,
      "max": [
        0.625,
        0.25
      ],
      "min": [
        0.375,
        0.0
      ],
      "type": "VEC2"
    },
    {
      "bufferView": 0,
      "byteOffset": 58680,
      "componentType": 5125,
      "count": 6,
      "type": "SCALAR"
    },
    {
      "bufferView": 2,
      "byteOffset": 116064,
      "componentType": 5126,
      "count": 130,
      "max": [
        0.019999999552965164,
        0.009999999776482582,
        0.019999999552965164
      ],
      "min": [
        -0.019999999552965164,
        -0.009999999776482582,
        -0.019999999552965164
      ],
      "type": "VEC3"
    },
    {
      "bufferView": 2,
      "byteOffset": 117624,
      "componentType": 5126,
      "count": 130,
      "max": [
        0.7278809547424316,
        0.6857142448425293,
        0.7278809547424316
      ],
      "min": [
        -0.7278809547424316,
        -0.6857142448425293,
        -0.7278809547424316
      ],
      "type": "VEC3"
    },
    {
      "bufferView": 1,
      "byteOffset": 38688,
      "componentType": 5126,
      "count": 130,
      "max": [
        1.0,
        1.0
      ],
      "min": [
        0.0,
        0.01000000536441803
      ],
      "type": "VEC2"
    },
    {
      "bufferView": 0,
      "byteOffset": 58704,
      "componentType": 5125,
      "count": 372,
      "type": "SCALAR"
    },
    {
      "bufferView": 2,
      "byteOffset": 119184,
      "componentType": 5126,
      "count": 130,
      "max": [
        0.019999999552965164,
        0.009999999776482582,
        0.019999999552965164
      ],
      "min": [
        -0.019999999552965164,
        -0.009999999776482582,
        -0.019999999552965164
      ],
      "type": "VEC3"
    },
    {
      "bufferView": 2,
      "byteOffset": 120744,
      "componentType": 5126,
      "count": 130,
      "max": [
        0.7278809547424316,
        0.6857142448425293,
        0.7278809547424316
      ],
      "min": [
        -0.7278809547424316,
        -0.6857142448425293,
        -0.7278809547424316
      ],
      "type": "VEC3"
    },
    {
      "bufferView": 1,
      "byteOffset": 39728,
      "componentType": 5126,
      "count": 130,
      "max": [
        1.0,
        1.0
      ],
      "min": [
        0.0,
        0.01000000536441803
      ],
      "type": "VEC2"
    },
    {
      "bufferView": 0,
      "byteOffset": 60192,
      "componentType": 5125,
      "count": 372,
      "type": "SCALAR"
    },
    {
      "bufferView": 2,
      "byteOffset": 122304,
      "componentType": 5126,
      "count": 130,
      "max": [
        0.019999999552965164,
        0.009999999776482582,
        0.019999999552965164
      ],
      "min": [
        -0.019999999552965164,
        -0.009999999776482582,
        -0.019999999552965164
      ],
      "type": "VEC3"
    },
    {
      "bufferView": 2,
      "byteOffset": 123864,
      "componentType": 5126,
      "count": 130,
      "max": [
        0.7278809547424316,
        0.6857142448425293,
        0.7278809547424316
      ],
      "min": [
        -0.7278809547424316,
        -0.6857142448425293,
        -0.7278809547424316
      ],
      "type": "VEC3"
    },
    {
      "bufferView": 1,
      "byteOffset": 40768,
      "componentType": 5126,
      "count": 130,
      "max": [
        1.0,
        1.0
      ],
      "min": [
        0.0,
        0.01000000536441803
      ],
      "type": "VEC2"
    },
    {
      "bufferView": 0,
      "byteOffset": 61680,
      "componentType": 5125,
      "count": 372,
      "type": "SCALAR"
    },
    {
      "bufferView": 2,
      "byteOffset": 125424,
      "componentType": 5126,
      "count": 14,
      "max": [
        1.0,
        1.5192023515701294,
        5.585775852203369
      ],
      "min": [
        -1.0,
        -1.7540781497955322,
        -0.4459385871887207
      ],
      "type": "VEC3"
    },
    {
      "bufferView": 2,
      "byteOffset": 125592,
      "componentType": 5126,
      "count": 14,
      "max": [
        0.6425613760948181,
        0.739797055721283,
        0.7934051156044006
      ],
      "min": [
        -0.6425613760948181,
        -0.689736545085907,
        -0.7697656154632568
      ],
      "type": "VEC3"
    },
    {
      "bufferView": 1,
      "byteOffset": 41808,
      "componentType": 5126,
      "count": 14,
      "max": [
        0.875,
        1.0
      ],
      "min": [
        0.125,
        0.0
      ],
      "type": "VEC2"
    },
    {
      "bufferView": 0,
      "byteOffset": 63168,
      "componentType": 5125,
      "count": 36,
      "type": "SCALAR"
    },
    {
      "bufferView": 2,
      "byteOffset": 125760,
      "componentType": 5126,
      "count": 130,
      "max": [
        0.019999999552965164,
        0.009999999776482582,
        0.019999999552965164
      ],
      "min": [
        -0.02000000700354576,
        -0.156843900680542,
        -0.019999999552965164
      ],
      "type": "VEC3"
    },
    {
      "bufferView": 2,
      "byteOffset": 127320,
      "componentType": 5126,
      "count": 130,
      "max": [
        0.7278809547424316,
        0.6857142448425293,
        0.7278809547424316
      ],
      "min": [
        -0.7278809547424316,
        -0.6857142448425293,
        -0.7278809547424316
      ],
      "type": "VEC3"
    },
    {
      "bufferView": 1,
      "byteOffset": 41920,
      "componentType": 5126,
      "count": 130,
      "max": [
        1.0,
        1.0
      ],
      "min": [
        0.0,
        0.01000000536441803
      ],
      "type": "VEC2"
    },
    {
      "bufferView": 0,
      "byteOffset": 63312,
      "componentType": 5125,
      "count": 372,
      "type": "SCALAR"
    },
    {
      "bufferView": 2,
      "byteOffset": 128880,
      "componentType": 5126,
      "count": 130,
      "max": [
        0.019999999552965164,
        0.0233455877751112,
        0.019999999552965164
      ],
      "min": [
        -0.019999999552965164,
        -0.009999999776482582,
        -0.019999999552965164
      ],
      "type": "VEC3"
    },
    {
      "bufferView": 2,
      "byteOffset": 130440,
      "componentType": 5126,
      "count": 130,
      "max": [
        0.7278809547424316,
        0.6857142448425293,
        0.7278809547424316
      ],
      "min": [
        -0.7278809547424316,
        -0.6857142448425293,
        -0.7278809547424316
      ],
      "type": "VEC3"
    },
    {
      "bufferView": 1,
      "byteOffset": 42960,
      "componentType": 5126,
      "count": 130,
      "max": [
        1.0,
        1.0
      ],
      "min": [
        0.0,
        0.01000000536441803
      ],
      "type": "VEC2"
    },
    {
      "bufferView": 0,
      "byteOffset": 64800,
      "componentType": 5125,
      "count": 372,
      "type": "SCALAR"
    },
    {
      "bufferView": 2,
      "byteOffset": 132000,
      "componentType": 5126,
      "count": 130,
      "max": [
        0.019999999552965164,
        0.0233455877751112,
        0.019999999552965164
      ],
      "min": [
        -0.019999999552965164,
        -0.009999999776482582,
        -0.019999999552965164
      ],
      "type": "VEC3"
    },
    {
      "bufferView": 2,
      "byteOffset": 133560,
      "componentType": 5126,
      "count": 130,
      "max": [
        0.7278809547424316,
        0.6857142448425293,
        0.7278809547424316
      ],
      "min": [
        -0.7278809547424316,
        -0.6857142448425293,
        -0.7278809547424316
      ],
      "type": "VEC3"
    },
    {
      "bufferView": 1,
      "byteOffset": 44000,
      "componentType": 5126,
      "count": 130,
      "max": [
        1.0,
        1.0
      ],
      "min": [
        0.0,
        0.01000000536441803
      ],
      "type": "VEC2"
    },
    {
      "bufferView": 0,
      "byteOffset": 66288,
      "componentType": 5125,
      "count": 372,
      "type": "SCALAR"
    },
    {
      "bufferView": 2,
      "byteOffset": 135120,
      "componentType": 5126,
      "count": 130,
      "max": [
        0.019999999552965164,
        0.0233455877751112,
        0.019999999552965164
      ],
      "min": [
        -0.019999999552965164,
        -0.009999999776482582,
        -0.019999999552965164
      ],
      "type": "VEC3"
    },
    {
      "bufferView": 2,
      "byteOffset": 136680,
      "componentType": 5126,
      "count": 130,
      "max": [
        0.7278809547424316,
        0.6857142448425293,
        0.7278809547424316
      ],
      "min": [
        -0.7278809547424316,
        -0.6857142448425293,
        -0.7278809547424316
      ],
      "type": "VEC3"
    },
    {
      "bufferView": 1,
      "byteOffset": 45040,
      "componentType": 5126,
      "count": 130,
      "max": [
        1.0,
        1.0
      ],
      "min": [
        0.0,
        0.01000000536441803
      ],
      "type": "VEC2"
    },
    {
      "bufferView": 0,
      "byteOffset": 67776,
      "componentType": 5125,
      "count": 372,
      "type": "SCALAR"
    },
    {
      "bufferView": 2,
      "byteOffset": 138240,
      "componentType": 5126,
      "count": 130,
      "max": [
        0.019999999552965164,
        0.009999999776482582,
        0.019999999552965164
      ],
      "min": [
        -0.019999999552965164,
        -0.009999999776482582,
        -0.019999999552965164
      ],
      "type": "VEC3"
    },
    {
      "bufferView": 2,
      "byteOffset": 139800,
      "componentType": 5126,
      "count": 130,
      "max": [
        0.7278809547424316,
        0.6857142448425293,
        0.7278809547424316
      ],
      "min": [
        -0.7278809547424316,
        -0.6857142448425293,
        -0.7278809547424316
      ],
      "type": "VEC3"
    },
    {
      "bufferView": 1,
      "byteOffset": 46080,
      "componentType": 5126,
      "count": 130,
      "max": [
        1.0,
        1.0
      ],
      "min": [
        0.0,
        0.01000000536441803
      ],
      "type": "VEC2"
    },
    {
      "bufferView": 0,
      "byteOffset": 69264,
      "componentType": 5125,
      "count": 372,
      "type": "SCALAR"
    },
    {
      "bufferView": 2,
      "byteOffset": 141360,
      "componentType": 5126,
      "count": 130,
      "max": [
        0.019999999552965164,
        0.009999999776482582,
        0.019999999552965164
      ],
      "min": [
        -0.019999999552965164,
        -0.009999999776482582,
        -0.019999999552965164
      ],
      "type": "VEC3"
    },
    {
      "bufferView": 2,
      "byteOffset": 142920,
      "componentType": 5126,
      "count": 130,
      "max": [
        0.7278809547424316,
        0.6857142448425293,
        0.7278809547424316
      ],
      "min": [
        -0.7278809547424316,
        -0.6857142448425293,
        -0.7278809547424316
      ],
      "type": "VEC3"
    },
    {
      "bufferView": 1,
      "byteOffset": 47120,
      "componentType": 5126,
      "count": 130,
      "max": [
        1.0,
        1.0
      ],
      "min": [
        0.0,
        0.01000000536441803
      ],
      "type": "VEC2"
    },
    {
      "bufferView": 0,
      "byteOffset": 70752,
      "componentType": 5125,
      "count": 372,
      "type": "SCALAR"
    },
    {
      "bufferView": 2,
      "byteOffset": 144480,
      "componentType": 5126,
      "count": 130,
      "max": [
        0.019999999552965164,
        0.009999999776482582,
        0.019999999552965164
      ],
      "min": [
        -0.019999999552965164,
        -0.009999999776482582,
        -0.019999999552965164
      ],
      "type": "VEC3"
    },
    {
      "bufferView": 2,
      "byteOffset": 146040,
      "componentType": 5126,
      "count": 130,
      "max": [
        0.7278809547424316,
        0.6857142448425293,
        0.7278809547424316
      ],
      "min": [
        -0.7278809547424316,
        -0.6857142448425293,
        -0.7278809547424316
      ],
      "type": "VEC3"
    },
    {
      "bufferView": 1,
      "byteOffset": 48160,
      "componentType": 5126,
      "count": 130,
      "max": [
        1.0,
        1.0
      ],
      "min": [
        0.0,
        0.01000000536441803
      ],
      "type": "VEC2"
    },
    {
      "bufferView": 0,
      "byteOffset": 72240,
      "componentType": 5125,
      "count": 372,
      "type": "SCALAR"
    },
    {
      "bufferView": 2,
      "byteOffset": 147600,
      "componentType": 5126,
      "count": 176,
      "max": [
        0.09993908554315567,
        0.35490545630455017,
        0.09975641220808029
      ],
      "min": [
        -0.09993908554315567,
        -0.25,
        -0.09902680665254593
      ],
      "type": "VEC3"
    },
    {
      "bufferView": 2,
      "byteOffset": 149712,
      "componentType": 5126,
      "count": 176,
      "max": [
        0.9599872827529907,
        0.691753625869751,
        0.9582343697547913
      ],
      "min": [
        -0.9599872827529907,
        -0.691753625869751,
        -0.9585956335067749
      ],
      "type": "VEC3"
    },
    {
      "bufferView": 1,
      "byteOffset": 49200,
      "componentType": 5126,
      "count": 176,
      "max": [
        0.9555555582046509,
        1.0
      ],
      "min": [
        0.022222278639674187,
        0.08347167074680328
      ],
      "type": "VEC2"
    },
    {
      "bufferView": 0,
      "byteOffset": 73728,
      "componentType": 5125,
      "count": 522,
      "type": "SCALAR"
    },
    {
      "bufferView": 2,
      "byteOffset": 151824,
      "componentType": 5126,
      "count": 90,
      "max": [
        0.09993908554315567,
        0.35490545630455017,
        0.09975641220808029
      ],
      "min": [
        -0.09993908554315567,
        -0.25,
        -0.10000000149011612
      ],
      "type": "VEC3"
    },
    {
      "bufferView": 2,
      "byteOffset": 152904,
      "componentType": 5126,
      "count": 90,
      "max": [
        0.7217085361480713,
        0.691753625869751,
        0.7203928828239441
      ],
      "min": [
        -0.7217085361480713,
        -0.691753625869751,
        -0.7221419811248779
      ],
      "type": "VEC3"
    },
    {
      "bufferView": 1,
      "byteOffset": 50608,
      "componentType": 5126,
      "count": 90,
      "max": [
        0.9898537993431091,
        0.49000000953674316
      ],
      "min": [
        0.08316673338413239,
        0.010584622621536255
      ],
      "type": "VEC2"
    },
    {
      "bufferView": 0,
      "byteOffset": 75816,
      "componentType": 5125,
      "count": 258,
      "type": "SCALAR"
    },
    {
      "bufferView": 2,
      "byteOffset": 153984,
      "componentType": 5126,
      "count": 100,
      "max": [
        0.09993908554315567,
        0.2974514663219452,
        0.09975641220808029
      ],
      "min": [
        -0.09993908554315567,
        -0.25,
        -0.10000000149011612
      ],
      "type": "VEC3"
    },
    {
      "bufferView": 2,
      "byteOffset": 155184,
      "componentType": 5126,
      "count": 100,
      "max": [
        0.9599872827529907,
        0.28477922081947327,
        0.9582343697547913
      ],
      "min": [
        -0.9599872827529907,
        -0.6917510032653809,
        -0.9605716466903687
      ],
      "type": "VEC3"
    },
    {
      "bufferView": 1,
      "byteOffset": 51328,
      "componentType": 5126,
      "count": 100,
      "max": [
        1.0,
        1.0
      ],
      "min": [
        5.587935447692871e-08,
        0.010584622621536255
      ],
      "type": "VEC2"
    },
    {
      "bufferView": 0,
      "byteOffset": 76848,
      "componentType": 5125,
      "count": 288,
      "type": "SCALAR"
    },
    {
      "bufferView": 2,
      "byteOffset": 156384,
      "componentType": 5126,
      "count": 144,
      "max": [
        0.04972609505057335,
        0.08476189523935318,
        0.049878206104040146
      ],
      "min": [
        -0.049969542771577835,
        -0.08983912318944931,
        -0.05000000074505806
      ],
      "type": "VEC3"
    },
    {
      "bufferView": 2,
      "byteOffset": 158112,
      "componentType": 5126,
      "count": 144,
      "max": [
        0.9210051894187927,
        0.37734702229499817,
        0.9238200783729553
      ],
      "min": [
        -0.9255130290985107,
        -0.37734702229499817,
        -0.9260750412940979
      ],
      "type": "VEC3"
    },
    {
      "bufferView": 1,
      "byteOffset": 52128,
      "componentType": 5126,
      "count": 144,
      "max": [
        1.0,
        0.961904764175415
      ],
      "min": [
        5.587935447692871e-08,
        0.5254021883010864
      ],
      "type": "VEC2"
    },
    {
      "bufferView": 0,
      "byteOffset": 78000,
      "componentType": 5125,
      "count": 252,
      "type": "SCALAR"
    },
    {
      "bufferView": 2,
      "byteOffset": 159840,
      "componentType": 5126,
      "count": 332,
      "max": [
        0.049969542771577835,
        0.10000000149011612,
        0.049878206104040146
      ],
      "min": [
        -0.049969542771577835,
        -0.10000000149011612,
        -0.05000000074505806
      ],
      "type": "VEC3"
    },
    {
      "bufferView": 2,
      "byteOffset": 163824,
      "componentType": 5126,
      "count": 332,
      "max": [
        0.9255130290985107,
        0.918075442314148,
        0.9238200783729553
      ],
      "min": [
        -0.9255130290985107,
        -0.918075442314148,
        -0.9260750412940979
      ],
      "type": "VEC3"
    },
    {
      "bufferView": 1,
      "byteOffset": 53280,
      "componentType": 5126,
      "count": 332,
      "max": [
        1.0,
        1.0
      ],
      "min": [
        5.587935447692871e-08,
        0.5
      ],
      "type": "VEC2"
    },
    {
      "bufferView": 0,
      "byteOffset": 79008,
      "componentType": 5125,
      "count": 540,
      "type": "SCALAR"
    },
    {
      "bufferView": 2,
      "byteOffset": 167808,
      "componentType": 5126,
      "count": 100,
      "max": [
        0.049969542771577835,
        0.10000000149011612,
        0.03971732407808304
      ],
      "min": [
        -0.03979005664587021,
        -0.10000000149011612,
        -0.039814308285713196
      ],
      "type": "VEC3"
    },
    {
      "bufferView": 2,
      "byteOffset": 169008,
      "componentType": 5126,
      "count": 100,
      "max": [
        0.9255130290985107,
        0.918075442314148,
        0.39546239376068115
      ],
      "min": [
        -0.3961935043334961,
        -0.918075442314148,
        -0.3964371979236603
      ],
      "type": "VEC3"
    },
    {
      "bufferView": 1,
      "byteOffset": 55936,
      "componentType": 5126,
      "count": 100,
      "max": [
        0.9409918785095215,
        0.961904764175415
      ],
      "min": [
        0.08342304825782776,
        0.059356849640607834
      ],
      "type": "VEC2"
    },
    {
      "bufferView": 0,
      "byteOffset": 81168,
      "componentType": 5125,
      "count": 276,
      "type": "SCALAR"
    },
    {
      "bufferView": 2,
      "byteOffset": 170208,
      "componentType": 5126,
      "count": 152,
      "max": [
        0.049969542771577835,
        0.08476189523935318,
        0.049878206104040146
      ],
      "min": [
        -0.049969542771577835,
        -0.08983912318944931,
        -0.05000000074505806
      ],
      "type": "VEC3"
    },
    {
      "bufferView": 2,
      "byteOffset": 172032,
      "componentType": 5126,
      "count": 152,
      "max": [
        0.9255130290985107,
        0.37734702229499817,
        0.9238200783729553
      ],
      "min": [
        -0.9255130290985107,
        -0.37734702229499817,
        -0.9260750412940979
      ],
      "type": "VEC3"
    },
    {
      "bufferView": 1,
      "byteOffset": 56736,
      "componentType": 5126,
      "count": 152,
      "max": [
        1.0,
        0.961904764175415
      ],
      "min": [
        5.587935447692871e-08,
        0.5254021883010864
      ],
      "type": "VEC2"
    },
    {
      "bufferView": 0,
      "byteOffset": 82272,
      "componentType": 5125,
      "count": 270,
      "type": "SCALAR"
    },
    {
      "bufferView": 2,
      "byteOffset": 173856,
      "componentType": 5126,
      "count": 332,
      "max": [
        0.049969542771577835,
        0.10000000149011612,
        0.049878206104040146
      ],
      "min": [
        -0.049969542771577835,
        -0.10000000149011612,
        -0.05000000074505806
      ],
      "type": "VEC3"
    },
    {
      "bufferView": 2,
      "byteOffset": 177840,
      "componentType": 5126,
      "count": 332,
      "max": [
        0.9255130290985107,
        0.918075442314148,
        0.9238200783729553
      ],
      "min": [
        -0.9255130290985107,
        -0.918075442314148,
        -0.9260750412940979
      ],
      "type": "VEC3"
    },
    {
      "bufferView": 1,
      "byteOffset": 57952,
      "componentType": 5126,
      "count": 332,
      "max": [
        1.0,
        1.0
      ],
      "min": [
        5.587935447692871e-08,
        0.5
      ],
      "type": "VEC2"
    },
    {
      "bufferView": 0,
      "byteOffset": 83352,
      "componentType": 5125,
      "count": 540,
      "type": "SCALAR"
    },
    {
      "bufferView": 2,
      "byteOffset": 181824,
      "componentType": 5126,
      "count": 90,
      "max": [
        0.03979005664587021,
        0.10000000149011612,
        0.03971732407808304
      ],
      "min": [
        -0.03979005664587021,
        -0.10000000149011612,
        -0.039814308285713196
      ],
      "type": "VEC3"
    },
    {
      "bufferView": 2,
      "byteOffset": 182904,
      "componentType": 5126,
      "count": 90,
      "max": [
        0.3961935043334961,
        0.918075442314148,
        0.39546239376068115
      ],
      "min": [
        -0.3961935043334961,
        -0.918075442314148,
        -0.3964371979236603
      ],
      "type": "VEC3"
    },
    {
      "bufferView": 1,
      "byteOffset": 60608,
      "componentType": 5126,
      "count": 90,
      "max": [
        0.9409918785095215,
        0.44110867381095886
      ],
      "min": [
        0.08342304825782776,
        0.059356849640607834
      ],
      "type": "VEC2"
    },
    {
      "bufferView": 0,
      "byteOffset": 85512,
      "componentType": 5125,
      "count": 258,
      "type": "SCALAR"
    }
  ],
  "asset": {
    "extras": {
      "author": "Suhomlinova (https://sketchfab.com/Suhomlinova)",
      "license": "CC-BY-4.0 (http://creativecommons.org/licenses/by/4.0/)",
      "source": "https://sketchfab.com/3d-models/e547a43413c84d3ca08b7ab4c8e694ed",
      "title": "Робот"
    },
    "generator": "Sketchfab-12.60.0",
    "version": "2.0"
  },
  "bufferViews": [
    {
      "buffer": 0,
      "byteLength": 86544,
      "name": "floatBufferViews",
      "target": 34963
    },
    {
      "buffer": 0,
      "byteLength": 61328,
      "byteOffset": 86544,
      "byteStride": 8,
      "name": "floatBufferViews",
      "target": 34962
    },
    {
      "buffer": 0,
      "byteLength": 183984,
      "byteOffset": 147872,
      "byteStride": 12,
      "name": "floatBufferViews",
      "target": 34962
    }
  ],
  "buffers": [
    {
      "byteLength": 331856,
      "uri": "scene.bin"
    }
  ],
  "materials": [
    {
      "doubleSided": true,
      "name": "Material.001",
      "pbrMetallicRoughness": {
        "baseColorFactor": [
          0.925825,
          0.0275786,
          0.200428,
          1.0
        ],
        "metallicFactor": 0.1,
        "roughnessFactor": 0.5
      }
    },
    {
      "doubleSided": true,
      "name": "Material.004",
      "pbrMetallicRoughness": {
        "baseColorFactor": [
          0.507069,
          0.022616,
          0.197374,
          1.0
        ],
        "metallicFactor": 0.0,
        "roughnessFactor": 0.2
      }
    },
    {
      "doubleSided": true,
      "name": "Material.007",
      "pbrMetallicRoughness": {
        "baseColorFactor": [
          0.999983,
          0.588067,
          0.0326565,
          1.0
        ],
        "metallicFactor": 0.2,
        "roughnessFactor": 0.2
      }
    },
    {
      "doubleSided": true,
      "name": "Material.005",
      "pbrMetallicRoughness": {
        "baseColorFactor": [
          0.0212177,
          0.0372273,
          0.152324,
          1.0
        ],
        "metallicFactor": 0.0,
        "roughnessFactor": 0.5
      }
    },
    {
      "doubleSided": true,
      "name": "Material.003",
      "pbrMetallicRoughness": {
        "baseColorFactor": [
          0.040426,
          0.00625132,
          0.0469387,
          1.0
        ],
        "metallicFactor": 0.3,
        "roughnessFactor": 0.2
      }
    },
    {
      "doubleSided": true,
      "name": "Material.008",
      "pbrMetallicRoughness": {
        "baseColorFactor": [
          0.8,
          0.158281,
          0.518634,
          1.0
        ],
        "metallicFactor": 0.0,
        "roughnessFactor": 0.5
      }
    },
    {
      "doubleSided": true,
      "name": "Material.002",
      "pbrMetallicRoughness": {
        "baseColorFactor": [
          1.0,
          0.408942,
          0.0582774,
          1.0
        ],
        "metallicFactor": 0.1,
        "roughnessFactor": 0.1
      }
    },
    {
      "doubleSided": true,
      "name": "Material.009",
      "pbrMetallicRoughness": {
        "baseColorFactor": [
          0.0304519,
          0.00489034,
          0.0607192,
          1.0
        ],
        "metallicFactor": 0.2,
        "roughnessFactor": 0.2
      }
    },
    {
      "doubleSided": true,
      "name": "Material.006",
      "pbrMetallicRoughness": {
        "baseColorFactor": [
          0.8,
          0.320414,
          0.124117,
          1.0
        ],
        "metallicFactor": 0.0,
        "roughnessFactor": 0.5
      }
    },
    {
      "doubleSided": true,
      "name": "Material.012",
      "pbrMetallicRoughness": {
        "baseColorFactor": [
          0.255674,
          0.101674,
          0.496922,
          1.0
        ],
        "metallicFactor": 0.0,
        "roughnessFactor": 0.5
      }
    }
  ],
  "meshes": [
    {
      "name": "Object_0",
      "primitives": [
        {
          "attributes": {
            "NORMAL": 1,
            "POSITION": 0,
            "TEXCOORD_0": 2
          },
          "indices": 3,
          "material": 0,
          "mode": 4
        }
      ]
    },
    {
      "name": "Object_1",
      "primitives": [
        {
          "attributes": {
            "NORMAL": 5,
            "POSITION": 4,
            "TEXCOORD_0": 6
          },
          "indices": 7,
          "material": 1,
          "mode": 4
        }
      ]
    },
    {
      "name": "Object_2",
      "primitives": [
        {
          "attributes": {
            "NORMAL": 9,
            "POSITION": 8,
            "TEXCOORD_0": 10
          },
          "indices": 11,
          "material": 2,
          "mode": 4
        }
      ]
    },
    {
      "name": "Object_3",
      "primitives": [
        {
          "attributes": {
            "NORMAL": 13,
            "POSITION": 12,
            "TEXCOORD_0": 14
          },
          "indices": 15,
          "material": 3,
          "mode": 4
        }
      ]
    },
    {
      "name": "Object_4",
      "primitives": [
        {
          "attributes": {
            "NORMAL": 17,
            "POSITION": 16,
            "TEXCOORD_0": 18
          },
          "indices": 19,
          "material": 1,
          "mode": 4
        }
      ]
    },
    {
      "name": "Object_5",
      "primitives": [
        {
          "attributes": {
            "NORMAL": 21,
            "POSITION": 20,
            "TEXCOORD_0": 22
          },
          "indices": 23,
          "material": 4,
          "mode": 4
        }
      ]
    },
    {
      "name": "Object_6",
      "primitives": [
        {
          "attributes": {
            "NORMAL": 25,
            "POSITION": 24,
            "TEXCOORD_0": 26
          },
          "indices": 27,
          "material": 4,
          "mode": 4
        }
      ]
    },
    {
      "name": "Object_7",
      "primitives": [
        {
          "attributes": {
            "NORMAL": 29,
            "POSITION": 28,
            "TEXCOORD_0": 30
          },
          "indices": 31,
          "material": 4,
          "mode": 4
        }
      ]
    },
    {
      "name": "Object_8",
      "primitives": [
        {
          "attributes": {
            "NORMAL": 33,
            "POSITION": 32,
            "TEXCOORD_0": 34
          },
          "indices": 35,
          "material": 4,
          "mode": 4
        }
      ]
    },
    {
      "name": "Object_9",
      "primitives": [
        {
          "attributes": {
            "NORMAL": 37,
            "POSITION": 36,
            "TEXCOORD_0": 38
          },
          "indices": 39,
          "material": 3,
          "mode": 4
        }
      ]
    },
    {
      "name": "Object_10",
      "primitives": [
        {
          "attributes": {
            "NORMAL": 41,
            "POSITION": 40,
            "TEXCOORD_0": 42
          },
          "indices": 43,
          "material": 2,
          "mode": 4
        }
      ]
    },
    {
      "name": "Object_11",
      "primitives": [
        {
          "attributes": {
            "NORMAL": 45,
            "POSITION": 44,
            "TEXCOORD_0": 46
          },
          "indices": 47,
          "material": 4,
          "mode": 4
        }
      ]
    },
    {
      "name": "Object_12",
      "primitives": [
        {
          "attributes": {
            "NORMAL": 49,
            "POSITION": 48,
            "TEXCOORD_0": 50
          },
          "indices": 51,
          "material": 4,
          "mode": 4
        }
      ]
    },
    {
      "name": "Object_13",
      "primitives": [
        {
          "attributes": {
            "NORMAL": 53,
            "POSITION": 52,
            "TEXCOORD_0": 54
          },
          "indices": 55,
          "material": 2,
          "mode": 4
        }
      ]
    },
    {
      "name": "Object_14",
      "primitives": [
        {
          "attributes": {
            "NORMAL": 57,
            "POSITION": 56,
            "TEXCOORD_0": 58
          },
          "indices": 59,
          "material": 4,
          "mode": 4
        }
      ]
    },
    {
      "name": "Object_15",
      "primitives": [
        {
          "attributes": {
            "NORMAL": 61,
            "POSITION": 60,
            "TEXCOORD_0": 62
          },
          "indices": 63,
          "material": 2,
          "mode": 4
        }
      ]
    },
    {
      "name": "Object_16",
      "primitives": [
        {
          "attributes": {
            "NORMAL": 65,
            "POSITION": 64,
            "TEXCOORD_0": 66
          },
          "indices": 67,
          "material": 5,
          "mode": 4
        }
      ]
    },
    {
      "name": "Object_17",
      "primitives": [
        {
          "attributes": {
            "NORMAL": 69,
            "POSITION": 68,
            "TEXCOORD_0": 70
          },
          "indices": 71,
          "material": 6,
          "mode": 4
        }
      ]
    },
    {
      "name": "Object_18",
      "primitives": [
        {
          "attributes": {
            "NORMAL": 73,
            "POSITION": 72,
            "TEXCOORD_0": 74
          },
          "indices": 75,
          "material": 7,
          "mode": 4
        }
      ]
    },
    {
      "name": "Object_19",
      "primitives": [
        {
          "attributes": {
            "NORMAL": 77,
            "POSITION": 76,
            "TEXCOORD_0": 78
          },
          "indices": 79,
          "material": 8,
          "mode": 4
        }
      ]
    },
    {
      "name": "Object_20",
      "primitives": [
        {
          "attributes": {
            "NORMAL": 81,
            "POSITION": 80,
            "TEXCOORD_0": 82
          },
          "indices": 83,
          "material": 5,
          "mode": 4
        }
      ]
    },
    {
      "name": "Object_21",
      "primitives": [
        {
          "attributes": {
            "NORMAL": 85,
            "POSITION": 84,
            "TEXCOORD_0": 86
          },
          "indices": 87,
          "material": 5,
          "mode": 4
        }
      ]
    },
    {
      "name": "Object_22",
      "primitives": [
        {
          "attributes": {
            "NORMAL": 89,
            "POSITION": 88,
            "TEXCOORD_0": 90
          },
          "indices": 91,
          "material": 3,
          "mode": 4
        }
      ]
    },
    {
      "name": "Object_23",
      "primitives": [
        {
          "attributes": {
            "NORMAL": 93,
            "POSITION": 92,
            "TEXCOORD_0": 94
          },
          "indices": 95,
          "material": 8,
          "mode": 4
        }
      ]
    },
    {
      "name": "Object_24",
      "primitives": [
        {
          "attributes": {
            "NORMAL": 97,
            "POSITION": 96,
            "TEXCOORD_0": 98
          },
          "indices": 99,
          "material": 9,
          "mode": 4
        }
      ]
    },
    {
      "name": "Object_25",
      "primitives": [
        {
          "attributes": {
            "NORMAL": 101,
            "POSITION": 100,
            "TEXCOORD_0": 102
          },
          "indices": 103,
          "material": 8,
          "mode": 4
        }
      ]
    },
    {
      "name": "Object_26",
      "primitives": [
        {
          "attributes": {
            "NORMAL": 105,
            "POSITION": 104,
            "TEXCOORD_0": 106
          },
          "indices": 107,
          "material": 4,
          "mode": 4
        }
      ]
    },
    {
      "name": "Object_27",
      "primitives": [
        {
          "attributes": {
            "NORMAL": 109,
            "POSITION": 108,
            "TEXCOORD_0": 110
          },
          "indices": 111,
          "material": 3,
          "mode": 4
        }
      ]
    },
    {
      "name": "Object_28",
      "primitives": [
        {
          "attributes": {
            "NORMAL": 113,
            "POSITION": 112,
            "TEXCOORD_0": 114
          },
          "indices": 115,
          "material": 1,
          "mode": 4
        }
      ]
    },
    {
      "name": "Object_29",
      "primitives": [
        {
          "attributes": {
            "NORMAL": 117,
            "POSITION": 116,
            "TEXCOORD_0": 118
          },
          "indices": 119,
          "material": 4,
          "mode": 4
        }
      ]
    },
    {
      "name": "Object_30",
      "primitives": [
        {
          "attributes": {
            "NORMAL": 121,
            "POSITION": 120,
            "TEXCOORD_0": 122
          },
          "indices": 123,
          "material": 4,
          "mode": 4
        }
      ]
    },
    {
      "name": "Object_31",
      "primitives": [
        {
          "attributes": {
            "NORMAL": 125,
            "POSITION": 124,
            "TEXCOORD_0": 126
          },
          "indices": 127,
          "material": 4,
          "mode": 4
        }
      ]
    },
    {
      "name": "Object_32",
      "primitives": [
        {
          "attributes": {
            "NORMAL": 129,
            "POSITION": 128,
            "TEXCOORD_0": 130
          },
          "indices": 131,
          "material": 3,
          "mode": 4
        }
      ]
    },
    {
      "name": "Object_33",
      "primitives": [
        {
          "attributes": {
            "NORMAL": 133,
            "POSITION": 132,
            "TEXCOORD_0": 134
          },
          "indices": 135,
          "material": 2,
          "mode": 4
        }
      ]
    },
    {
      "name": "Object_34",
      "primitives": [
        {
          "attributes": {
            "NORMAL": 137,
            "POSITION": 136,
            "TEXCOORD_0": 138
          },
          "indices": 139,
          "material": 4,
          "mode": 4
        }
      ]
    },
    {
      "name": "Object_35",
      "primitives": [
        {
          "attributes": {
            "NORMAL": 141,
            "POSITION": 140,
            "TEXCOORD_0": 142
          },
          "indices": 143,
          "material": 4,
          "mode": 4
        }
      ]
    },
    {
      "name": "Object_36",
      "primitives": [
        {
          "attributes": {
            "NORMAL": 145,
            "POSITION": 144,
            "TEXCOORD_0": 146
          },
          "indices": 147,
          "material": 2,
          "mode": 4
        }
      ]
    },
    {
      "name": "Object_37",
      "primitives": [
        {
          "attributes": {
            "NORMAL": 149,
            "POSITION": 148,
            "TEXCOORD_0": 150
          },
          "indices": 151,
          "material": 4,
          "mode": 4
        }
      ]
    },
    {
      "name": "Object_38",
      "primitives": [
        {
          "attributes": {
            "NORMAL": 153,
            "POSITION": 152,
            "TEXCOORD_0": 154
          },
          "indices": 155,
          "material": 2,
          "mode": 4
        }
      ]
    },
    {
      "name": "Object_39",
      "primitives": [
        {
          "attributes": {
            "NORMAL": 157,
            "POSITION": 156,
            "TEXCOORD_0": 158
          },
          "indices": 159,
          "material": 5,
          "mode": 4
        }
      ]
    },
    {
      "name": "Object_40",
      "primitives": [
        {
          "attributes": {
            "NORMAL": 161,
            "POSITION": 160,
            "TEXCOORD_0": 162
          },
          "indices": 163,
          "material": 7,
          "mode": 4
        }
      ]
    },
    {
      "name": "Object_41",
      "primitives": [
        {
          "attributes": {
            "NORMAL": 165,
            "POSITION": 164,
            "TEXCOORD_0": 166
          },
          "indices": 167,
          "material": 8,
          "mode": 4
        }
      ]
    },
    {
      "name": "Object_42",
      "primitives": [
        {
          "attributes": {
            "NORMAL": 169,
            "POSITION": 168,
            "TEXCOORD_0": 170
          },
          "indices": 171,
          "material": 5,
          "mode": 4
        }
      ]
    },
    {
      "name": "Object_43",
      "primitives": [
        {
          "attributes": {
            "NORMAL": 173,
            "POSITION": 172,
            "TEXCOORD_0": 174
          },
          "indices": 175,
          "material": 5,
          "mode": 4
        }
      ]
    },
    {
      "name": "Object_44",
      "primitives": [
        {
          "attributes": {
            "NORMAL": 177,
            "POSITION": 176,
            "TEXCOORD_0": 178
          },
          "indices": 179,
          "material": 3,
          "mode": 4
        }
      ]
    },
    {
      "name": "Object_45",
      "primitives": [
        {
          "attributes": {
            "NORMAL": 181,
            "POSITION": 180,
            "TEXCOORD_0": 182
          },
          "indices": 183,
          "material": 8,
          "mode": 4
        }
      ]
    },
    {
      "name": "Object_46",
      "primitives": [
        {
          "attributes": {
            "NORMAL": 185,
            "POSITION": 184,
            "TEXCOORD_0": 186
          },
          "indices": 187,
          "material": 9,
          "mode": 4
        }
      ]
    },
    {
      "name": "Object_47",
      "primitives": [
        {
          "attributes": {
            "NORMAL": 189,
            "POSITION": 188,
            "TEXCOORD_0": 190
          },
          "indices": 191,
          "material": 8,
          "mode": 4
        }
      ]
    },
    {
      "name": "Object_48",
      "primitives": [
        {
          "attributes": {
            "NORMAL": 193,
            "POSITION": 192,
            "TEXCOORD_0": 194
          },
          "indices": 195,
          "material": 4,
          "mode": 4
        }
      ]
    }
  ],
  "nodes": [
    {
      "children": [
        1
      ],
      "matrix": [
        1.0,
        0.0,
        0.0,
        0.0,
        0.0,
        2.220446049250313e-16,
        -1.0,
        0.0,
        0.0,
        1.0,
        2.220446049250313e-16,
        0.0,
        0.0,
        0.0,
        0.0,
        1.0
      ],
      "name": "Sketchfab_model"
    },
    {
      "children": [
        2
      ],
      "name": "root"
    },
    {
      "children": [
        3,
        7,
        10,
        12,
        14,
        16,
        18,
        20,
        22,
        24,
        26,
        28,
        30,
        32,
        34,
        36,
        40,
        44,
        48,
        51,
        53,
        55,
        57,
        59,
        61,
        63,
        65,
        67,
        69,
        71,
        73,
        77,
        81
      ],
      "matrix": [
        1.0,
        0.0,
        0.0,
        0.0,
        0.0,
        2.220446049250313e-16,
        1.0,
        0.0,
        0.0,
        -1.0,
        2.220446049250313e-16,
        0.0,
        0.0,
        0.0,
        0.0,
        1.0
      ],
      "name": "GLTF_SceneRootNode"
    },
    {
      "children": [
        4,
        5,
        6
      ],
      "matrix": [
        1.0,
        0.0,
        0.0,
        0.0,
        0.0,
        1.0,
        0.0,
        0.0,
        0.0,
        0.0,
        1.0,
        0.0,
        -0.054215069860219955,
        0.61080002784729,
        0.0,
        1.0
      ],
      "name": "Sphere_1"
    },
    {
      "mesh": 0,
      "name": "Object_4"
    },
    {
      "mesh": 1,
      "name": "Object_5"
    },
    {
      "mesh": 2,
      "name": "Object_6"
    },
    {
      "children": [
        8,
        9
      ],
      "matrix": [
        0.03083357959985733,
        0.0,
        -0.0,
        0.0,
        0.0,
        0.02865757738081851,
        -0.005164661582777706,
        0.0,
        0.0,
        0.052727556812057694,
        0.29257367887991675,
        0.0,
        0.3581298291683197,
        0.5583233833312988,
        -0.27967673540115356,
        1.0
      ],
      "name": "Cube_2"
    },
    {
      "mesh": 3,
      "name": "Object_8"
    },
    {
      "mesh": 4,
      "name": "Object_9"
    },
    {
      "children": [
        11
      ],
      "matrix": [
        3.0821556257322784e-07,
        -3.656448602676379,
        0.0,
        0.0,
        0.9999999999999966,
        8.429369480200677e-08,
        0.0,
        0.0,
        0.0,
        0.0,
        3.6564486026763916,
        0.0,
        0.4264686405658722,
        0.6107000708580017,
        0.0007642018608748913,
        1.0
      ],
      "name": "Cylinder_3"
    },
    {
      "mesh": 5,
      "name": "Object_11"
    },
    {
      "children": [
        13
      ],
      "matrix": [
        2.2362786608196382e-07,
        -2.6529607772827055,
        -0.0,
        0.0,
        0.9695423245429959,
        8.172630480265577e-08,
        0.0,
        0.0,
        0.0,
        0.0,
        2.652960777282715,
        0.0,
        0.4026373326778412,
        0.5018175840377808,
        -0.5455544590950012,
        1.0
      ],
      "name": "Cylinder.001_4"
    },
    {
      "mesh": 6,
      "name": "Object_13"
    },
    {
      "children": [
        15
      ],
      "matrix": [
        2.2362786608196382e-07,
        -2.6529607772827055,
        -0.0,
        0.0,
        0.9695423245429959,
        8.172630480265577e-08,
        0.0,
        0.0,
        0.0,
        0.0,
        2.652960777282715,
        0.0,
        0.3130926489830017,
        0.5018175840377808,
        -0.5455544590950012,
        1.0
      ],
      "name": "Cylinder.002_5"
    },
    {
      "mesh": 7,
      "name": "Object_15"
    },
    {
      "children": [
        17
      ],
      "matrix": [
        0.5926436185836792,
        0.0,
        0.0,
        0.0,
        0.0,
        0.4928091764450073,
        0.0,
        0.0,
        0.0,
        0.0,
        0.29176270961761475,
        0.0,
        -0.054215069860219955,
        0.61080002784729,
        0.2891232371330261,
        1.0
      ],
      "name": "Sphere.001_6"
    },
    {
      "mesh": 8,
      "name": "Object_17"
    },
    {
      "children": [
        19
      ],
      "matrix": [
        0.027570495381951332,
        0.0,
        -0.0,
        0.0,
        0.0,
        0.18237491025108649,
        -0.15716730494696124,
        0.0,
        0.0,
        0.01666484843695458,
        0.019337674836781078,
        0.0,
        0.3590710461139679,
        0.23486703634262085,
        -0.3231531083583832,
        1.0
      ],
      "name": "Cube.001_7"
    },
    {
      "mesh": 9,
      "name": "Object_19"
    },
    {
      "children": [
        21
      ],
      "matrix": [
        1.0032959882065388e-07,
        -1.1902384757995566,
        -0.0,
        0.0,
        0.8777749538421601,
        7.399089406401687e-08,
        0.0,
        0.0,
        0.0,
        0.0,
        1.1902384757995605,
        0.0,
        0.4210708439350128,
        0.5018175840377808,
        -0.5467963814735413,
        1.0
      ],
      "name": "Cylinder.003_8"
    },
    {
      "mesh": 10,
      "name": "Object_21"
    },
    {
      "children": [
        23
      ],
      "matrix": [
        3.948747560990469e-07,
        -4.684511184692367,
        0.0,
        0.0,
        1.0340045690536463,
        8.71600655676889e-08,
        0.0,
        0.0,
        0.0,
        0.0,
        4.684511184692383,
        0.0,
        0.39815229177474976,
        0.011682212352752686,
        0.0007934980094432831,
        1.0
      ],
      "name": "Cylinder.004_9"
    },
    {
      "mesh": 11,
      "name": "Object_23"
    },
    {
      "children": [
        25
      ],
      "matrix": [
        3.948747560990469e-07,
        -4.684511184692367,
        0.0,
        0.0,
        1.0340045690536463,
        8.71600655676889e-08,
        0.0,
        0.0,
        0.0,
        0.0,
        4.684511184692383,
        0.0,
        0.30617669224739075,
        0.011682212352752686,
        0.0007934980094432831,
        1.0
      ],
      "name": "Cylinder.005_10"
    },
    {
      "mesh": 12,
      "name": "Object_25"
    },
    {
      "children": [
        27
      ],
      "matrix": [
        2.548771366158113e-07,
        -3.023679733276357,
        0.0,
        0.0,
        4.8435068130492995,
        4.0827708507061953e-07,
        0.0,
        0.0,
        0.0,
        0.0,
        3.023679733276367,
        0.0,
        0.326875776052475,
        0.011682212352752686,
        0.0007934980094432831,
        1.0
      ],
      "name": "Cylinder.006_11"
    },
    {
      "mesh": 13,
      "name": "Object_27"
    },
    {
      "children": [
        29
      ],
      "matrix": [
        3.0821556257322784e-07,
        -3.656448602676379,
        0.0,
        0.0,
        0.9999999999999966,
        8.429369480200677e-08,
        0.0,
        0.0,
        0.0,
        0.0,
        3.6564486026763916,
        0.0,
        0.2893370985984802,
        0.6107000708580017,
        0.0007642018608748913,
        1.0
      ],
      "name": "Cylinder.007_12"
    },
    {
      "mesh": 14,
      "name": "Object_29"
    },
    {
      "children": [
        31
      ],
      "matrix": [
        2.2362786608196382e-07,
        -2.6529607772827055,
        0.0,
        0.0,
        9.904500961303677,
        8.348869811983177e-07,
        0.0,
        0.0,
        0.0,
        0.0,
        2.652960777282715,
        0.0,
        0.3581666350364685,
        0.6091217994689941,
        0.0016970038414001465,
        1.0
      ],
      "name": "Cylinder.008_13"
    },
    {
      "mesh": 15,
      "name": "Object_31"
    },
    {
      "children": [
        33
      ],
      "matrix": [
        1.3989635982698273e-07,
        -1.6596301794052066,
        0.0,
        0.0,
        11.664474487304647,
        9.832416524586557e-07,
        0.0,
        0.0,
        0.0,
        0.0,
        1.6596301794052124,
        0.0,
        0.3581666350364685,
        0.6105592250823975,
        0.0024157229345291853,
        1.0
      ],
      "name": "Cylinder.009_14"
    },
    {
      "mesh": 16,
      "name": "Object_33"
    },
    {
      "children": [
        35
      ],
      "matrix": [
        1.8535716533660889,
        0.0,
        0.0,
        0.0,
        0.0,
        1.8535716533660889,
        0.0,
        0.0,
        0.0,
        0.0,
        1.8122096061706543,
        0.0,
        -0.056632790714502335,
        0.617729127407074,
        0.331126868724823,
        1.0
      ],
      "name": "Sphere.002_15"
    },
    {
      "mesh": 17,
      "name": "Object_35"
    },
    {
      "children": [
        37,
        38,
        39
      ],
      "matrix": [
        1.0,
        0.0,
        0.0,
        0.0,
        0.0,
        0.6531044244766235,
        0.0,
        0.0,
        0.0,
        0.0,
        1.0,
        0.0,
        0.0759827271103859,
        0.6952091455459595,
        -0.3805006444454193,
        1.0
      ],
      "name": "Cylinder.011_16"
    },
    {
      "mesh": 18,
      "name": "Object_37"
    },
    {
      "mesh": 19,
      "name": "Object_38"
    },
    {
      "mesh": 20,
      "name": "Object_39"
    },
    {
      "children": [
        41,
        42,
        43
      ],
      "matrix": [
        1.0,
        0.0,
        0.0,
        0.0,
        0.0,
        1.0,
        0.0,
        0.0,
        0.0,
        0.0,
        1.0,
        0.0,
        0.2270534336566925,
        0.6583875417709351,
        -0.38690340518951416,
        1.0
      ],
      "name": "Cylinder.012_17"
    },
    {
      "mesh": 21,
      "name": "Object_41"
    },
    {
      "mesh": 22,
      "name": "Object_42"
    },
    {
      "mesh": 23,
      "name": "Object_43"
    },
    {
      "children": [
        45,
        46,
        47
      ],
      "matrix": [
        1.0,
        0.0,
        0.0,
        0.0,
        0.0,
        0.0,
        1.0,
        0.0,
        0.0,
        -1.0,
        0.0,
        0.0,
        0.2270534336566925,
        0.8128353953361511,
        -0.34004074335098267,
        1.0
      ],
      "name": "Cylinder.013_18"
    },
    {
      "mesh": 24,
      "name": "Object_45"
    },
    {
      "mesh": 25,
      "name": "Object_46"
    },
    {
      "mesh": 26,
      "name": "Object_47"
    },
    {
      "children": [
        49,
        50
      ],
      "matrix": [
        -0.03083357959985733,
        -0.0,
        0.0,
        -0.0,
        -0.0,
        0.02865757738081851,
        -0.005164661582777706,
        0.0,
        0.0,
        0.052727556812057694,
        0.29257367887991675,
        0.0,
        -0.4690985083580017,
        0.5583233833312988,
        -0.27967673540115356,
        1.0
      ],
      "name": "Cube.002_19"
    },
    {
      "mesh": 27,
      "name": "Object_49"
    },
    {
      "mesh": 28,
      "name": "Object_50"
    },
    {
      "children": [
        52
      ],
      "matrix": [
        -3.0821556257322784e-07,
        -3.656448602676379,
        -0.0,
        -0.0,
        -0.9999999999999966,
        8.429369480200677e-08,
        0.0,
        0.0,
        0.0,
        0.0,
        3.6564486026763916,
        0.0,
        -0.5374372601509094,
        0.6107000708580017,
        0.000764206051826477,
        1.0
      ],
      "name": "Cylinder.010_20"
    },
    {
      "mesh": 29,
      "name": "Object_52"
    },
    {
      "children": [
        54
      ],
      "matrix": [
        -2.2362786608196382e-07,
        -2.6529607772827055,
        0.0,
        -0.0,
        -0.9695423245429959,
        8.172630480265577e-08,
        0.0,
        0.0,
        0.0,
        0.0,
        2.652960777282715,
        0.0,
        -0.5136060118675232,
        0.5018175840377808,
        -0.5455544590950012,
        1.0
      ],
      "name": "Cylinder.014_21"
    },
    {
      "mesh": 30,
      "name": "Object_54"
    },
    {
      "children": [
        56
      ],
      "matrix": [
        -2.2362786608196382e-07,
        -2.6529607772827055,
        0.0,
        -0.0,
        -0.9695423245429959,
        8.172630480265577e-08,
        0.0,
        0.0,
        0.0,
        0.0,
        2.652960777282715,
        0.0,
        -0.4240613579750061,
        0.5018175840377808,
        -0.5455544590950012,
        1.0
      ],
      "name": "Cylinder.015_22"
    },
    {
      "mesh": 31,
      "name": "Object_56"
    },
    {
      "children": [
        58
      ],
      "matrix": [
        -0.027570495381951332,
        -0.0,
        0.0,
        -0.0,
        -0.0,
        0.18237491025108649,
        -0.15716730494696124,
        0.0,
        0.0,
        0.01666484843695458,
        0.019337674836781078,
        0.0,
        -0.4700396656990051,
        0.23486703634262085,
        -0.3231531083583832,
        1.0
      ],
      "name": "Cube.003_23"
    },
    {
      "mesh": 32,
      "name": "Object_58"
    },
    {
      "children": [
        60
      ],
      "matrix": [
        -1.0032959882065388e-07,
        -1.1902384757995566,
        0.0,
        -0.0,
        -0.8777749538421601,
        7.399089406401687e-08,
        0.0,
        0.0,
        0.0,
        0.0,
        1.1902384757995605,
        0.0,
        -0.53203946352005,
        0.5018175840377808,
        -0.5467963814735413,
        1.0
      ],
      "name": "Cylinder.016_24"
    },
    {
      "mesh": 33,
      "name": "Object_60"
    },
    {
      "children": [
        62
      ],
      "matrix": [
        -3.948747560990469e-07,
        -4.684511184692367,
        -0.0,
        -0.0,
        -1.0340045690536463,
        8.71600655676889e-08,
        0.0,
        0.0,
        0.0,
        0.0,
        4.684511184692383,
        0.0,
        -0.5091210007667542,
        0.011682212352752686,
        0.0007935017347335815,
        1.0
      ],
      "name": "Cylinder.017_25"
    },
    {
      "mesh": 34,
      "name": "Object_62"
    },
    {
      "children": [
        64
      ],
      "matrix": [
        -3.948747560990469e-07,
        -4.684511184692367,
        -0.0,
        -0.0,
        -1.0340045690536463,
        8.71600655676889e-08,
        0.0,
        0.0,
        0.0,
        0.0,
        4.684511184692383,
        0.0,
        -0.417145311832428,
        0.011682212352752686,
        0.0007935017347335815,
        1.0
      ],
      "name": "Cylinder.018_26"
    },
    {
      "mesh": 35,
      "name": "Object_64"
    },
    {
      "children": [
        66
      ],
      "matrix": [
        -2.548771366158113e-07,
        -3.023679733276357,
        -0.0,
        -0.0,
        -4.8435068130492995,
        4.0827708507061953e-07,
        0.0,
        0.0,
        0.0,
        0.0,
        3.023679733276367,
        0.0,
        -0.437844455242157,
        0.011682212352752686,
        0.0007935017347335815,
        1.0
      ],
      "name": "Cylinder.019_27"
    },
    {
      "mesh": 36,
      "name": "Object_66"
    },
    {
      "children": [
        68
      ],
      "matrix": [
        -3.0821556257322784e-07,
        -3.656448602676379,
        -0.0,
        -0.0,
        -0.9999999999999966,
        8.429369480200677e-08,
        0.0,
        0.0,
        0.0,
        0.0,
        3.6564486026763916,
        0.0,
        -0.4003058075904846,
        0.6107000708580017,
        0.000764206051826477,
        1.0
      ],
      "name": "Cylinder.020_28"
    },
    {
      "mesh": 37,
      "name": "Object_68"
    },
    {
      "children": [
        70
      ],
      "matrix": [
        -2.2362786608196382e-07,
        -2.6529607772827055,
        -0.0,
        -0.0,
        -9.904500961303677,
        8.348869811983177e-07,
        0.0,
        0.0,
        0.0,
        0.0,
        2.652960777282715,
        0.0,
        -0.4691353440284729,
        0.6091217994689941,
        0.0016970038414001465,
        1.0
      ],
      "name": "Cylinder.021_29"
    },
    {
      "mesh": 38,
      "name": "Object_70"
    },
    {
      "children": [
        72
      ],
      "matrix": [
        -1.3989635982698273e-07,
        -1.6596301794052066,
        -0.0,
        -0.0,
        -11.664474487304647,
        9.832416524586557e-07,
        0.0,
        0.0,
        0.0,
        0.0,
        1.6596301794052124,
        0.0,
        -0.4691353440284729,
        0.6105592250823975,
        0.0024157166481018066,
        1.0
      ],
      "name": "Cylinder.022_30"
    },
    {
      "mesh": 39,
      "name": "Object_72"
    },
    {
      "children": [
        74,
        75,
        76
      ],
      "matrix": [
        -1.0,
        -0.0,
        0.0,
        -0.0,
        0.0,
        0.6531044244766235,
        0.0,
        0.0,
        0.0,
        0.0,
        1.0,
        0.0,
        -0.15545743703842163,
        0.6952091455459595,
        -0.38420581817626953,
        1.0
      ],
      "name": "Cylinder.023_31"
    },
    {
      "mesh": 40,
      "name": "Object_74"
    },
    {
      "mesh": 41,
      "name": "Object_75"
    },
    {
      "mesh": 42,
      "name": "Object_76"
    },
    {
      "children": [
        78,
        79,
        80
      ],
      "matrix": [
        -1.0,
        -0.0,
        0.0,
        -0.0,
        0.0,
        1.0,
        0.0,
        0.0,
        0.0,
        0.0,
        1.0,
        0.0,
        -0.30652815103530884,
        0.6583875417709351,
        -0.3906085789203644,
        1.0
      ],
      "name": "Cylinder.024_32"
    },
    {
      "mesh": 43,
      "name": "Object_78"
    },
    {
      "mesh": 44,
      "name": "Object_79"
    },
    {
      "mesh": 45,
      "name": "Object_80"
    },
    {
      "children": [
        82,
        83,
        84
      ],
      "matrix": [
        -1.0,
        -0.0,
        0.0,
        -0.0,
        0.0,
        0.0,
        1.0,
        0.0,
        0.0,
        -1.0,
        0.0,
        0.0,
        -0.30652815103530884,
        0.8128353953361511,
        -0.3437459170818329,
        1.0
      ],
      "name": "Cylinder.025_33"
    },
    {
      "mesh": 46,
      "name": "Object_82"
    },
    {
      "mesh": 47,
      "name": "Object_83"
    },
    {
      "mesh": 48,
      "name": "Object_84"
    }
  ],
  "scene": 0,
  "scenes": [
    {
      "name": "Sketchfab_Scene",
      "nodes": [
        0
      ]
    }
  ]
}
