<svg width="131" height="131" viewBox="0 0 131 131" fill="none" xmlns="http://www.w3.org/2000/svg">
<path fill-rule="evenodd" clip-rule="evenodd" d="M30.6759 16.375H100.586C101.929 16.375 103.534 16.375 104.947 16.4951C106.585 16.6315 108.932 16.9863 111.372 18.28C114.271 19.8156 116.643 22.187 118.178 25.0865C119.472 27.5264 119.827 29.8735 119.963 31.511C120.083 32.9247 120.083 34.5294 120.083 35.8776V73.289C120.083 74.6318 120.083 76.2365 119.963 77.6502C119.827 79.2877 119.472 81.6348 118.178 84.0747C116.643 86.9742 114.271 89.3456 111.372 90.8812C109.374 91.9074 107.185 92.5187 104.947 92.6661C103.534 92.7862 101.929 92.7862 100.581 92.7862H30.4194C29.0766 92.7862 27.4719 92.7862 26.0582 92.6661C24.4207 92.5297 22.0736 92.1749 19.6337 90.8812C16.7342 89.3456 14.3629 86.9742 12.8272 84.0747C11.7979 82.0783 11.1903 79.8915 11.0423 77.6502C10.9167 76.242 10.9167 74.6372 10.9167 73.289V35.8776C10.9167 34.5349 10.9167 32.9301 11.0368 31.5164C11.1733 29.8789 11.5281 27.5318 12.8217 25.092C14.3574 22.1924 16.7287 19.8211 19.6282 18.2854C21.626 17.2592 23.8093 16.6479 26.0527 16.5005C27.4664 16.375 29.0712 16.375 30.4194 16.375H30.6759ZM22.4666 30.1955C21.8334 31.3963 21.8334 32.9792 21.8334 36.1342V73.0325C21.8334 76.1929 21.8334 77.7703 22.4666 78.9712C22.9787 79.9386 23.7698 80.7297 24.7372 81.2418C25.9381 81.875 27.521 81.875 30.6759 81.875H100.324C103.485 81.875 105.062 81.875 106.263 81.2418C107.23 80.7297 108.021 79.9386 108.534 78.9712C109.167 77.7703 109.167 76.1929 109.167 73.0325V36.1342C109.167 32.9738 109.167 31.3963 108.534 30.1955C108.021 29.2281 107.23 28.4369 106.263 27.9248C105.062 27.2917 103.485 27.2917 100.324 27.2917H30.6759C27.5155 27.2917 25.9381 27.2917 24.7372 27.9248C23.7698 28.4369 22.9787 29.2281 22.4666 30.1955Z" fill="white"/>
<path fill-rule="evenodd" clip-rule="evenodd" d="M65.5001 87.332C66.9477 87.332 68.3361 87.9071 69.3597 88.9307C70.3833 89.9544 70.9584 91.3427 70.9584 92.7904V109.165C70.9584 110.613 70.3833 112.001 69.3597 113.025C68.3361 114.049 66.9477 114.624 65.5001 114.624C64.0524 114.624 62.6641 114.049 61.6405 113.025C60.6168 112.001 60.0417 110.613 60.0417 109.165V92.7904C60.0417 91.3427 60.6168 89.9544 61.6405 88.9307C62.6641 87.9071 64.0524 87.332 65.5001 87.332Z" fill="white"/>
<path fill-rule="evenodd" clip-rule="evenodd" d="M32.75 109.165C32.75 107.718 33.3251 106.329 34.3487 105.306C35.3723 104.282 36.7607 103.707 38.2083 103.707H92.7917C94.2393 103.707 95.6277 104.282 96.6513 105.306C97.6749 106.329 98.25 107.718 98.25 109.165C98.25 110.613 97.6749 112.001 96.6513 113.025C95.6277 114.049 94.2393 114.624 92.7917 114.624H38.2083C36.7607 114.624 35.3723 114.049 34.3487 113.025C33.3251 112.001 32.75 110.613 32.75 109.165Z" fill="white"/>
</svg>
