<svg width="131" height="131" viewBox="0 0 131 131" fill="none" xmlns="http://www.w3.org/2000/svg">
<path d="M32.75 77.7812C39.5327 77.7812 45.0312 72.2827 45.0312 65.5C45.0312 58.7173 39.5327 53.2188 32.75 53.2188C25.9673 53.2188 20.4688 58.7173 20.4688 65.5C20.4688 72.2827 25.9673 77.7812 32.75 77.7812Z" stroke="white" stroke-width="2" stroke-linecap="round" stroke-linejoin="round"/>
<path d="M98.25 40.9375C105.033 40.9375 110.531 35.439 110.531 28.6562C110.531 21.8735 105.033 16.375 98.25 16.375C91.4673 16.375 85.9688 21.8735 85.9688 28.6562C85.9688 35.439 91.4673 40.9375 98.25 40.9375Z" stroke="white" stroke-width="2" stroke-linecap="round" stroke-linejoin="round"/>
<path d="M98.25 114.625C105.033 114.625 110.531 109.126 110.531 102.344C110.531 95.561 105.033 90.0625 98.25 90.0625C91.4673 90.0625 85.9688 95.561 85.9688 102.344C85.9688 109.126 91.4673 114.625 98.25 114.625Z" stroke="white" stroke-width="2" stroke-linecap="round" stroke-linejoin="round"/>
<path d="M43.4526 71.5195L87.5474 96.3225M87.5474 34.6758L43.4526 59.4788" stroke="white" stroke-width="2" stroke-linecap="round" stroke-linejoin="round"/>
</svg>
