<svg width="173" height="174" viewBox="0 0 173 174" fill="none" xmlns="http://www.w3.org/2000/svg">
<path d="M47.5751 61.0492C46.428 61.0492 45.3279 61.5049 44.5168 62.316C43.7057 63.1271 43.25 64.2272 43.25 65.3742V91.3242C43.25 92.4713 43.7057 93.5714 44.5168 94.3825C45.3279 95.1936 46.428 95.6492 47.5751 95.6492H125.425C126.572 95.6492 127.672 95.1936 128.483 94.3825C129.294 93.5714 129.75 92.4713 129.75 91.3242V65.3742C129.75 64.2272 129.294 63.1271 128.483 62.316C127.672 61.5049 126.572 61.0492 125.425 61.0492H47.5751ZM51.9 86.9992V69.6992H121.1V86.9992H51.9ZM99.475 104.299C98.328 104.299 97.2279 104.755 96.4168 105.566C95.6057 106.377 95.15 107.477 95.15 108.624V125.924C95.15 127.071 95.6057 128.171 96.4168 128.982C97.2279 129.794 98.328 130.249 99.475 130.249H125.425C126.572 130.249 127.672 129.794 128.483 128.982C129.294 128.171 129.75 127.071 129.75 125.924V108.624C129.75 107.477 129.294 106.377 128.483 105.566C127.672 104.755 126.572 104.299 125.425 104.299H99.475ZM103.8 121.599V112.949H121.1V121.599H103.8ZM17.3001 39.4242C17.3001 35.983 18.6671 32.6828 21.1003 30.2495C23.5336 27.8162 26.8339 26.4492 30.2751 26.4492H142.725C145.789 26.4447 148.756 27.5247 151.1 29.498C153.444 31.4713 155.015 34.2106 155.533 37.2307C156.051 40.2508 155.483 43.3567 153.931 45.9984C152.378 48.6401 149.941 50.6472 147.05 51.664V143.224C147.05 144.371 146.594 145.471 145.783 146.282C144.972 147.094 143.872 147.549 142.725 147.549H30.2751C29.128 147.549 28.0279 147.094 27.2168 146.282C26.4057 145.471 25.9501 144.371 25.9501 143.224V51.664C23.4192 50.7692 21.2283 49.1115 19.679 46.9194C18.1298 44.7272 17.2986 42.1086 17.3001 39.4242ZM30.2751 35.0992C29.128 35.0992 28.0279 35.5549 27.2168 36.366C26.4057 37.1771 25.9501 38.2772 25.9501 39.4242C25.9501 40.5713 26.4057 41.6714 27.2168 42.4825C28.0279 43.2936 29.128 43.7492 30.2751 43.7492H142.725C143.872 43.7492 144.972 43.2936 145.783 42.4825C146.594 41.6714 147.05 40.5713 147.05 39.4242C147.05 38.2772 146.594 37.1771 145.783 36.366C144.972 35.5549 143.872 35.0992 142.725 35.0992H30.2751ZM34.6 52.3992V138.899H43.25V108.624C43.25 107.477 43.7057 106.377 44.5168 105.566C45.3279 104.755 46.428 104.299 47.5751 104.299H82.175C83.3221 104.299 84.4222 104.755 85.2333 105.566C86.0444 106.377 86.5 107.477 86.5 108.624V138.899H138.4V52.3992H34.6ZM51.9 138.899H77.85V112.949H51.9V138.899Z" fill="white"/>
</svg>
