<svg width="131" height="131" viewBox="0 0 131 131" fill="none" xmlns="http://www.w3.org/2000/svg">
<path d="M73.6874 44.6642V26.2915C73.6874 24.9924 74.1132 23.9244 74.9647 23.0874C75.8162 22.2505 76.8714 21.832 78.1305 21.832H104.767C106.03 21.832 107.078 22.2505 107.911 23.0874C108.744 23.9244 109.163 24.9924 109.167 26.2915V44.6642C109.167 45.967 108.741 47.035 107.889 47.8683C107.038 48.7052 105.983 49.1237 104.724 49.1237H78.0868C76.8278 49.1237 75.7798 48.7052 74.9428 47.8683C74.1059 47.0313 73.6874 45.9633 73.6874 44.6642ZM21.8333 61.132V26.1987C21.8333 24.9615 22.259 23.9244 23.1105 23.0874C23.962 22.2505 25.0173 21.832 26.2763 21.832H52.913C54.1757 21.832 55.2237 22.2505 56.057 23.0874C56.8903 23.9244 57.3088 24.9615 57.3124 26.1987V61.132C57.3124 62.3693 56.8867 63.4063 56.0352 64.2433C55.1837 65.0802 54.1284 65.4987 52.8693 65.4987H26.2327C24.9736 65.4987 23.9256 65.0802 23.0887 64.2433C22.2517 63.4063 21.8333 62.3693 21.8333 61.132ZM73.6874 104.799V69.8654C73.6874 68.6281 74.1132 67.5911 74.9647 66.7541C75.8162 65.9172 76.8714 65.4987 78.1305 65.4987H104.767C106.03 65.4987 107.078 65.9172 107.911 66.7541C108.744 67.5911 109.163 68.6281 109.167 69.8654V104.799C109.167 106.036 108.741 107.073 107.889 107.91C107.038 108.747 105.983 109.165 104.724 109.165H78.0868C76.8278 109.165 75.7798 108.747 74.9428 107.91C74.1059 107.073 73.6874 106.036 73.6874 104.799ZM21.8333 104.706V86.3332C21.8333 85.0341 22.259 83.9661 23.1105 83.1291C23.962 82.2922 25.0173 81.8737 26.2763 81.8737H52.913C54.1757 81.8737 55.2237 82.2922 56.057 83.1291C56.8903 83.9661 57.3088 85.0341 57.3124 86.3332V104.706C57.3124 106.009 56.8867 107.077 56.0352 107.91C55.1837 108.747 54.1284 109.165 52.8693 109.165H26.2327C24.9736 109.165 23.9256 108.747 23.0887 107.91C22.2517 107.073 21.8333 106.005 21.8333 104.706ZM27.2916 60.0404H51.8541V27.2904H27.2916V60.0404ZM79.1457 103.707H103.708V70.957H79.1457V103.707ZM79.1457 43.6654H103.708V27.2904H79.1457V43.6654ZM27.2916 103.707H51.8541V87.332H27.2916V103.707Z" fill="white"/>
</svg>
