<svg width="38" height="38" viewBox="0 0 38 38" fill="none" xmlns="http://www.w3.org/2000/svg">
<path fill-rule="evenodd" clip-rule="evenodd" d="M8.89841 4.75H29.1777C29.5672 4.75 30.0327 4.75 30.4428 4.78483C30.9178 4.82442 31.5987 4.92733 32.3064 5.30258C33.1475 5.74805 33.8354 6.43592 34.2808 7.277C34.6561 7.98475 34.759 8.66558 34.7986 9.14058C34.8334 9.55067 34.8334 10.0162 34.8334 10.4072V21.2594C34.8334 21.6489 34.8334 22.1144 34.7986 22.5245C34.759 22.9995 34.6561 23.6803 34.2808 24.3881C33.8354 25.2292 33.1475 25.917 32.3064 26.3625C31.7269 26.6602 31.092 26.8375 30.4428 26.8802C30.0327 26.9151 29.5672 26.9151 29.1762 26.9151H8.824C8.4345 26.9151 7.969 26.9151 7.55891 26.8802C7.08391 26.8407 6.40308 26.7377 5.69533 26.3625C4.85425 25.917 4.16638 25.2292 3.72091 24.3881C3.42235 23.809 3.24611 23.1746 3.20316 22.5245C3.16675 22.116 3.16675 21.6505 3.16675 21.2594V10.4072C3.16675 10.0178 3.16675 9.55225 3.20158 9.14217C3.24116 8.66717 3.34408 7.98633 3.71933 7.27858C4.1648 6.4375 4.85266 5.74963 5.69375 5.30417C6.27325 5.0065 6.90658 4.82917 7.55733 4.78642C7.96741 4.75 8.43291 4.75 8.824 4.75H8.89841ZM6.51708 8.759C6.33341 9.10733 6.33341 9.5665 6.33341 10.4817V21.185C6.33341 22.1018 6.33341 22.5593 6.51708 22.9077C6.66563 23.1883 6.89511 23.4178 7.17575 23.5663C7.52408 23.75 7.98325 23.75 8.89841 23.75H29.1017C30.0185 23.75 30.4761 23.75 30.8244 23.5663C31.105 23.4178 31.3345 23.1883 31.4831 22.9077C31.6667 22.5593 31.6667 22.1018 31.6667 21.185V10.4817C31.6667 9.56492 31.6667 9.10733 31.4831 8.759C31.3345 8.47837 31.105 8.24888 30.8244 8.10033C30.4761 7.91667 30.0185 7.91667 29.1017 7.91667H8.89841C7.98166 7.91667 7.52408 7.91667 7.17575 8.10033C6.89511 8.24888 6.66563 8.47837 6.51708 8.759Z" fill="black"/>
<path fill-rule="evenodd" clip-rule="evenodd" d="M19.0001 25.332C19.42 25.332 19.8227 25.4988 20.1197 25.7958C20.4166 26.0927 20.5834 26.4954 20.5834 26.9154V31.6654C20.5834 32.0853 20.4166 32.488 20.1197 32.785C19.8227 33.0819 19.42 33.2487 19.0001 33.2487C18.5802 33.2487 18.1774 33.0819 17.8805 32.785C17.5836 32.488 17.4167 32.0853 17.4167 31.6654V26.9154C17.4167 26.4954 17.5836 26.0927 17.8805 25.7958C18.1774 25.4988 18.5802 25.332 19.0001 25.332Z" fill="black"/>
<path fill-rule="evenodd" clip-rule="evenodd" d="M9.5 31.6654C9.5 31.2454 9.66682 30.8427 9.96375 30.5458C10.2607 30.2488 10.6634 30.082 11.0833 30.082H26.9167C27.3366 30.082 27.7393 30.2488 28.0363 30.5458C28.3332 30.8427 28.5 31.2454 28.5 31.6654C28.5 32.0853 28.3332 32.488 28.0363 32.785C27.7393 33.0819 27.3366 33.2487 26.9167 33.2487H11.0833C10.6634 33.2487 10.2607 33.0819 9.96375 32.785C9.66682 32.488 9.5 32.0853 9.5 31.6654Z" fill="black"/>
</svg>
