<svg width="36" height="36" viewBox="0 0 36 36" fill="none" xmlns="http://www.w3.org/2000/svg">
<path d="M9 21.375C10.864 21.375 12.375 19.864 12.375 18C12.375 16.136 10.864 14.625 9 14.625C7.13604 14.625 5.625 16.136 5.625 18C5.625 19.864 7.13604 21.375 9 21.375Z" stroke="black" stroke-linecap="round" stroke-linejoin="round"/>
<path d="M27 11.25C28.864 11.25 30.375 9.73896 30.375 7.875C30.375 6.01104 28.864 4.5 27 4.5C25.136 4.5 23.625 6.01104 23.625 7.875C23.625 9.73896 25.136 11.25 27 11.25Z" stroke="black" stroke-linecap="round" stroke-linejoin="round"/>
<path d="M27 31.5C28.864 31.5 30.375 29.989 30.375 28.125C30.375 26.261 28.864 24.75 27 24.75C25.136 24.75 23.625 26.261 23.625 28.125C23.625 29.989 25.136 31.5 27 31.5Z" stroke="black" stroke-linecap="round" stroke-linejoin="round"/>
<path d="M11.9412 19.6562L24.0588 26.4723M24.0588 9.53125L11.9412 16.3473" stroke="black" stroke-linecap="round" stroke-linejoin="round"/>
</svg>
