<svg width="40" height="40" viewBox="0 0 40 40" fill="none" xmlns="http://www.w3.org/2000/svg">
<path d="M11 14C10.7348 14 10.4804 14.1054 10.2929 14.2929C10.1054 14.4804 10 14.7348 10 15V21C10 21.2652 10.1054 21.5196 10.2929 21.7071C10.4804 21.8946 10.7348 22 11 22H29C29.2652 22 29.5196 21.8946 29.7071 21.7071C29.8946 21.5196 30 21.2652 30 21V15C30 14.7348 29.8946 14.4804 29.7071 14.2929C29.5196 14.1054 29.2652 14 29 14H11ZM12 20V16H28V20H12ZM23 24C22.7348 24 22.4804 24.1054 22.2929 24.2929C22.1054 24.4804 22 24.7348 22 25V29C22 29.2652 22.1054 29.5196 22.2929 29.7071C22.4804 29.8946 22.7348 30 23 30H29C29.2652 30 29.5196 29.8946 29.7071 29.7071C29.8946 29.5196 30 29.2652 30 29V25C30 24.7348 29.8946 24.4804 29.7071 24.2929C29.5196 24.1054 29.2652 24 29 24H23ZM24 28V26H28V28H24ZM4 9C4 8.20435 4.31607 7.44129 4.87868 6.87868C5.44129 6.31607 6.20435 6 7 6H33C33.7085 5.99895 34.3945 6.24866 34.9365 6.70493C35.4785 7.16119 35.8415 7.79455 35.9613 8.49283C36.0811 9.19111 35.9498 9.90925 35.5909 10.52C35.2319 11.1309 34.6683 11.5949 34 11.83V33C34 33.2652 33.8946 33.5196 33.7071 33.7071C33.5196 33.8946 33.2652 34 33 34H7C6.73478 34 6.48043 33.8946 6.29289 33.7071C6.10536 33.5196 6 33.2652 6 33V11.83C5.41484 11.6231 4.90826 11.2398 4.55006 10.733C4.19186 10.2261 3.99968 9.62066 4 9ZM7 8C6.73478 8 6.48043 8.10536 6.29289 8.2929C6.10536 8.48043 6 8.73479 6 9C6 9.26522 6.10536 9.51957 6.29289 9.70711C6.48043 9.89465 6.73478 10 7 10H33C33.2652 10 33.5196 9.89465 33.7071 9.70711C33.8946 9.51957 34 9.26522 34 9C34 8.73479 33.8946 8.48043 33.7071 8.2929C33.5196 8.10536 33.2652 8 33 8H7ZM8 12V32H10V25C10 24.7348 10.1054 24.4804 10.2929 24.2929C10.4804 24.1054 10.7348 24 11 24H19C19.2652 24 19.5196 24.1054 19.7071 24.2929C19.8946 24.4804 20 24.7348 20 25V32H32V12H8ZM12 32H18V26H12V32Z" fill="black"/>
</svg>
