<svg width="29" height="30" viewBox="0 0 29 30" fill="none" xmlns="http://www.w3.org/2000/svg">
<path d="M17.1876 8.16251V2.13176C17.1876 1.70534 17.3273 1.35477 17.6068 1.08005C17.8863 0.80533 18.2327 0.667969 18.646 0.667969H27.3893C27.8038 0.667969 28.1478 0.80533 28.4213 1.08005C28.6949 1.35477 28.8322 1.70534 28.8334 2.13176V8.16251C28.8334 8.59012 28.6937 8.94069 28.4142 9.21422C28.1347 9.48894 27.7883 9.6263 27.375 9.6263H18.6317C18.2184 9.6263 17.8744 9.48894 17.5997 9.21422C17.3249 8.9395 17.1876 8.58893 17.1876 8.16251ZM0.166748 13.568V2.1013C0.166748 1.69519 0.306498 1.35477 0.585998 1.08005C0.865498 0.80533 1.21189 0.667969 1.62516 0.667969H10.3685C10.783 0.667969 11.127 0.80533 11.4005 1.08005C11.674 1.35477 11.8114 1.69519 11.8126 2.1013V13.568C11.8126 13.9741 11.6728 14.3145 11.3933 14.5892C11.1138 14.8639 10.7674 15.0013 10.3542 15.0013H1.61083C1.19755 15.0013 0.853554 14.8639 0.578831 14.5892C0.304109 14.3145 0.166748 13.9741 0.166748 13.568ZM17.1876 27.9013V16.4346C17.1876 16.0285 17.3273 15.6881 17.6068 15.4134C17.8863 15.1387 18.2327 15.0013 18.646 15.0013H27.3893C27.8038 15.0013 28.1478 15.1387 28.4213 15.4134C28.6949 15.6881 28.8322 16.0285 28.8334 16.4346V27.9013C28.8334 28.3074 28.6937 28.6478 28.4142 28.9226C28.1347 29.1973 27.7883 29.3346 27.375 29.3346H18.6317C18.2184 29.3346 17.8744 29.1973 17.5997 28.9226C17.3249 28.6478 17.1876 28.3074 17.1876 27.9013ZM0.166748 27.8708V21.8401C0.166748 21.4137 0.306498 21.0631 0.585998 20.7884C0.865498 20.5137 1.21189 20.3763 1.62516 20.3763H10.3685C10.783 20.3763 11.127 20.5137 11.4005 20.7884C11.674 21.0631 11.8114 21.4137 11.8126 21.8401V27.8708C11.8126 28.2985 11.6728 28.649 11.3933 28.9226C11.1138 29.1973 10.7674 29.3346 10.3542 29.3346H1.61083C1.19755 29.3346 0.853554 29.1973 0.578831 28.9226C0.304109 28.6478 0.166748 28.2973 0.166748 27.8708ZM1.95841 13.2096H10.0209V2.45964H1.95841V13.2096ZM18.9792 27.543H27.0417V16.793H18.9792V27.543ZM18.9792 7.83464H27.0417V2.45964H18.9792V7.83464ZM1.95841 27.543H10.0209V22.168H1.95841V27.543Z" fill="black"/>
</svg>
